<?xml version="1.0" encoding="UTF-8"?><svg id="Layer_1" xmlns="http://www.w3.org/2000/svg" viewBox="0 0 941.34 911.75"><defs><style>.cls-1{fill:#323232;}.cls-2{fill:#b8860b;}</style></defs><path class="cls-2" d="M605.18,122.36c-1.21-.48-2.28-.95-3.26-1.42,4.01-7.33,9.62-16.39,9.64-18.8.02-1.54-1.56-3.12-3.11-3.11-2.11.02-11.01,5.28-17.28,8.8-.48-1.49-.99-3.14-1.59-5-1.58-4.94-5.07-23.17-7.82-25.55-3.01-2.6-4.34-.68-5.78,2.26-4.31,8.78-4.56,20.66-8.52,29.87-.67-.35-1.36-.71-2.12-1.1-3.81-1.97-16.51-10.58-19.5-10.36-3.28.24-2.93,2.14-2.06,4.7,2.24,6.55,7.55,12.69,10.95,19.15-7.48,2.62-28.49,7.51-30.78,9.76-.7.69-1.22,2.59-.98,3.57.91,3.65,17.5,6.95,29.53,11.25-3.8,6.75-8.7,15.15-8.72,17.07,0,.81.8,2.23,1.51,2.66,2.41,1.45,12.18-4.79,21.09-9.33,4.18,9.09,5.9,24.74,9.34,32.78,2.24,5.25,5.39,5.68,7.77.24,3.65-8.36,4.17-22.14,8.61-31.91,5.66,3.41,11.46,7.45,15.82,9.2,4.38,1.76,6.47.17,4.68-4.4-1.85-4.72-5.96-10.04-9.4-15.55,9.17-3.44,28.56-7.48,31.19-10.05,1.33-1.31,1.33-4.01,0-5.32-2.47-2.42-23.95-7.3-29.23-9.4Z"/><path class="cls-2" d="M761.23,201.39c-16.61-39.27-40.38-74.53-70.66-104.81-30.28-30.28-65.54-54.06-104.81-70.66C545.09,8.72,501.91,0,457.4,0s-87.7,8.72-128.35,25.92c-7.87,3.33-15.58,6.96-23.12,10.86-2.09-.7-4.16-1.32-6.02-1.76-1.19-.28-2.31-.5-3.3-.61-3.63-.41-7.84.3-11.54,0,2.32,1.68,4.78,3.34,7.2,5.09,1.22.88,2.43,1.78,3.61,2.71-5.86,3.3-11.62,6.76-17.26,10.41-2.09-.09-4.19-.1-6.29-.06-19.15.37-38.59,5.24-56.94-.61-5.68-1.81-10.65-5.32-16.29-7.19,2.25,11.23,10.23,19.75,20.15,24.82l17.26,5.42c-20.05.88-44.95,5.85-61.56,17.66-.96.68-9.82,7.48-8.49,8.62,11.32-.8,24.44-2.07,35.53.69.96.24,3.47.44,3.47,1.69-15.32,3.72-28.72,12.62-43.97,16.94-23.42,6.63-44.33,3.52-65.08-8.97,3.51,18.81,20.74,30.69,38.19,35.43l24.68,3.57c-3.2.09-6.21,1.33-9.17,2.38-28.09,9.94-62.65,25.18-70.45,56.92.8,1.33,1.77-.25,2.41-.78,2.82-2.34,5.45-5.29,8.37-7.55,19.83-15.28,46.71-18.62,71.54-18.49-.68,1.37-1.37,2.74-2.03,4.12l-5.99,2.26c-35.04,16.71-64.58,49.28-63.93,90.09l3.65-6.29c12.51-18.88,28.47-29.35,47.63-37.82-2.42,8.12-4.53,16.31-6.31,24.58-19.87,24.48-26.42,54.93-44.65,83.15l-8.29,9.62c15.83-7.44,23.62-24.19,33.91-37.33,4.23-5.4,8.45-10.17,12.89-14.44-.81,9.49-1.22,19.06-1.22,28.68,0,44.51,8.72,87.7,25.92,128.35,16.61,39.27,40.38,74.53,70.66,104.81,30.28,30.28,65.54,54.05,104.81,70.66,40.66,17.2,83.84,25.92,128.35,25.92s87.7-8.72,128.35-25.92c39.27-16.61,74.53-40.38,104.81-70.66,30.28-30.28,54.05-65.54,70.66-104.81,17.2-40.66,25.92-83.84,25.92-128.35s-8.72-87.7-25.92-128.35ZM353.47,35.21c.58,8.98,4.94,17.08,8.01,25.47-11.91-3.48-22.73-9.65-33.85-15.02,8.45-3.87,17.07-7.36,25.85-10.44ZM326.23,437.04c-3.62-12.67-8-24.88-12.5-37.24l6.21,7.71c31.87,42.33,39.02,105.71,2.54,147.52,3.88-14.01,9.18-27.63,11.7-42.03,4.92-28.15-.31-49.26-7.95-75.96ZM294.62,162.56l24.05-5.79,27.43-9.98,9.02-4.91c-12.83,18.74-39,25.57-60.49,20.68ZM351.13,224.66c-19.48-8.16-22.81-29.89-17.5-48.55l1.82,13.69c1.86,12.92,9.11,23.96,15.69,34.85ZM311.32,375.12c-4.97-5.78-10.08-12.62-13.66-19.37-11.68-22.01-9.59-47.19-11-71.38l24.66,90.75ZM309.75,436.42l9.54,78.01-8.76-21.87c-6.63-18.5-.3-37.22-.78-56.13ZM328.84,299.9c-15.04-12.1-12.79-29.16-11.92-46.57l7,24.43c9.59,23.22,36.29,24.13,55.87,34.09.92.47,2.2.74,2.4,1.97-16.55-5.41-39.26-2.59-53.34-13.91ZM278.95,135.36c24.56-9.86,48.63-22.44,75.37-25.32-.88,1.75-3.35,2.52-5.04,3.31-17.01,7.99-39.64,18.78-57.69,22.72-6.01,1.31-12.3,2.33-18.47,2.61l5.82-3.32ZM228.31,195.05c3.4-.78,9.22-1.75,10.43-1.88,15.57-1.65,29.07,1.68,43.48,7.17,11.76,4.48,28.55,11.54,23.89,27.17-4.39-4.15-6.95-8.57-12.07-12.23-14.98-10.69-38.52-16.03-56.74-15.07,5,6.75,11.14,12.75,16.36,19.4,9.08,11.58,25.9,38.93,43.86,35.62,1.9-.35,2.95-1.84,4.76-2.05.62,9.7-10.43,9.3-17.08,6.97-23.17-8.13-37.48-39.75-53.4-57.33-1.57-1.73-3.92-3.04-5.18-5.04.55-.91,1.12-1.82,1.68-2.73ZM292.73,239.55c.69.73,1.85.99,1.92,1.07,1.39,1.57-4,1.31-4.69,1.18-10.38-2.01-8.07-15.12-13.85-21.15-1.89-1.97-4.91-3.43-6.97-5.04-.67-.52-1.48-.63-1.24-1.76,8.47,1.84,14.25,8.85,21.06,13.61,1.66,1.52.17,3.39.2,5.21.06,2.58,1.86,5.08,3.56,6.87ZM162.44,227.04c9.33-3.47,19.02-6.64,28.68-7.94-9.72,8.01-21.86,12.99-32.57,19.84,1.21-4,2.52-7.96,3.88-11.9ZM148.19,286.46c3.77-2.2,7.78-4.27,12.15-6.21,17.39-7.75,36.66-11.48,52.69-22.14l1.18.39c-18.71,23.07-50.21,32.31-68.6,55.38.46-9.22,1.33-18.36,2.58-27.41ZM154.87,407.16c-.48-1.87-.94-3.74-1.38-5.63,12.43,4.13,23.15,11.43,32.58,22.15.94,1.07,6.93,8.18,6.21,8.99-11.16-8.62-22.18-17.45-34.57-24.31l-2.83-1.2ZM263.58,574.51c-2.99-2.37-5.94-4.8-8.86-7.3-.36-2.84-.65-5.7-.81-8.57-.72-13.11,1.56-26.54.8-39.81-.31-5.47-1.45-11.33-2.37-16.74l7.41,21.05c2.64,16.65,4.18,34.08,3.82,51.36ZM283.07,588.81c16.79-50.57,1.87-98.02-45.97-132.71-1.79-1.3-3.52-3.38-5.81-3.15-.76.78,2.71,14.38,3.02,16.86,3.01,23.68-6.9,45.5-9.03,68.69-4.8-5.32-9.4-10.77-13.79-16.36-2.85-27.64-15.88-48.36-39.37-65.26-2.97-6.66-5.71-13.43-8.2-20.28,20.47,9.12,38.65,18.09,50.34,43.12,2.81,6.02,4.17,12.45,6.67,18.29.41.96.42,2.3,1.77,2.52,5.23-37.6-8.29-76.38-35.37-102.7-11.03-10.72-24.32-17.66-38.48-20.45-.6-3.95-1.15-7.91-1.6-11.89,6.32,1.25,12.71,2.05,18.93,3.95,37.98,11.62,49.52,46.98,76.8,71.42,9.03,8.09,16.68,12.23,24.05,22.76,3.27,4.66,5.25,9.97,8.72,14.29,1.72-13.7,2.31-28.7,1.6-42.55-1.75-33.97-16.28-56.86-45.34-74.01-24.79-14.63-61.46-19.18-85.25-.74-.82-8.36-1.32-16.79-1.47-25.28.41-.41.82-.82,1.25-1.22,19.71-18.02,39.33-17.48,62.09-27.07,13.95-5.88,26.37-17.22,31.87-31.42,1.48-.18.63,1.62.43,2.42-5.09,21.24-22.79,46.58-43.43,54.9.44,1.77,1.14,1.08,2.19,1.07,27.56-.32,45.86-10.69,57.1-36.12l7.57-23.87c.51,10.82,1.21,19.42-1.33,30.11-2.95,12.41-9.23,23.76-19.91,31.04-2.84,1.94-5.89,3.04-8.79,4.75-2.15,1.27-.48,2.1,1.11,3.23,8.85,6.28,19.77,9.49,28.93,17.24,50.56,42.72,11.27,90.81,29.43,140.13,5.51,14.97,14,26.01,15.17,42.94,1.3,18.9-2.97,37.53-10.48,55.14-5.23-3.1-10.37-6.37-15.43-9.79ZM189.95,364.81c32.13,3.09,63.65,33.85,70.98,64.73l-13.28-19.09c-11.9-13.95-25.43-26.42-40.92-36.31l-16.78-9.34ZM457.4,641.93c-30.12,0-59.57-4.25-87.7-12.45,2.13-4.74,4.28-9.46,6.91-13.95-8.65,3.09-17.65,5.26-26.65,7.47-6.52-2.39-12.97-4.99-19.31-7.81,25.36-9.13,52.44-14.05,74.54-31.19,22.19-17.21,32.42-43.59,40.69-69.57,1.36-.2.85,1.9.78,2.77-.46,5.5-1.5,11.96-.79,17.54.14,1.11.43,2.3,1.58,1.18,13.08-33.62,37.55-52.32,74.45-50.94.96.04,2.96-.6,2.77.79-25.18,4.86-45.81,18.63-60.35,39.56-8.21,11.83-13.25,25.46-19.25,38.46,6.44-2.62,11.7-7.03,18.93-7.73,14.93-1.45,26.39,13.03,37.23,21.24,15.19,11.5,31.02,16.23,47.07,25.37,8.75,4.99,16.64,11.92,25.39,16.97-36.48,14.63-75.79,22.31-116.28,22.31ZM346.37,591.64c7.63-18,22.76-31.69,39.56-41.23l31.28-16.87c-19.87,23.54-50.3,35.11-70.84,58.1ZM612.23,516.81c-1.56.16-.46-1.54-.39-2.38.44-4.9,1.59-9.91,1.98-14.74,1.27-15.56.71-31.12-1.19-46.57,9.3,19.82,7.55,43.7-.41,63.69ZM618.72,319.91c-1.14,2.53-4.89,12.11-4.89,14.21v12.34c-1.24.19-.94-1.48-1.18-2.4-3.66-13.93,2.4-26.74,11.51-37.03.87-.98,2.66-3.15,4.01-3.16-3.04,5.4-6.88,10.34-9.45,16.03ZM629.74,551.84c-1.51.16-.64-1.6-.41-2.4,8.38-28.14,16.08-53.74,16.43-83.87l1.49-6.06c.12,2.23-.17,4.52.02,6.75.65,7.7,2.19,16.2,2.41,23.86.66,22.43-7.17,43.65-19.94,61.72ZM678.15,550.49c-5.53,5.53-11.23,10.82-17.08,15.88,22.75-52.66,1.27-104.13-1.05-157.43-.53-12.24,3.17-20.94,3.24-31.04.03-4.68-2.21-12.35-1.63-16.65.52-3.9,15.11-29.6,18.14-35.23,4.22-7.84,20.28-33.06,20.87-39.63.79-8.86-.61-18.86-.02-27.89.72-11.13,6.18-22.37.92-32.78-1.16-2.29-10.52-17.6-11.52-17.98-.94-.36-1.98-.55-2.15.62-.1.7,3.69,8.13,4.22,10.09,3.91,14.36-2.78,27.39-3.42,41.64-.21,4.69.58,8.29.83,12.69.06,1.07.57,4.97-.83,5.21-1.79-8.08-3.04-15.95-2.43-24.31.62-8.5,4.82-17.9,4.72-26.32-.04-3.63-6.47-26.27-8.22-29.82-2.79-5.65-10.98-14.18-14.95-20.07-2.43-3.6-9.43-17.18-11.96-18.28-12.72-5.57-10.27,16.74-7.78,23.69,2.29,6.39,11.18,15.5,11.8,17.66,2.69,9.38-.28,22.61,7.29,31.67-5.06,11.1-8.22,21.01-4.86,33.27-5.56,6.11-12.79,11.21-15.02,19.68-1.36.22-.85-1.9-.72-2.71,1.24-7.5,8.21-11.46,12.54-16.97-.43-6.05-1.29-12.79-.58-18.84.45-3.82,4.72-12.58,4.66-14.43-.04-1.2-1.69-2.66-2.19-4.14-2.66-7.84-4.34-15.98-4.14-24.34-6.06-5.32-10.4-12.71-12.76-20.47-1.15-.83-3.6,2.4-4.13,3.42-4.73,9.14,2.66,19.38,8.12,26.43-7.92,5.32.09,15.28,3.02,21.36-1.32,2.98-3.31,6.5-3.74,9.75-.79,5.93,1.95,10.31-1.32,15.4-3.34,5.19-9.38,9.93-12.83,15.23l-20.94,2.34c-.08-5.44.08-10.9.03-16.35-.08-8.1.13-6.44,1.96-13.89,2.61-10.64-.47-27.24-10.99-32.8-3.71-1.96-9.51-1.13-10.74,3.11-1.64,5.63.52,16.35-1.33,24.14-2.5,10.51-3.09,15.04-4.51,25.74-.92,6.98-3.29,13.54-4.44,20.24-2.12,12.41,1.64,41.45,7.31,52.72,7.25,14.39,10.93,12.57,9.96,31.42-2.32,45.05-20.09,86.86-30.81,129.99-5.06,20.35-8.38,39.05-2.62,59.88-15.57-15.89-10.93-38.98-8.75-58.9-13.38,4.48-27.8,12.31-38.58,21.51-1.44,1.23-10.44,10.05-10.67,10.86-.8,2.89,7.45,4.52,9.99,5.7,8.7,4.06,16.68,9.09,23.34,16.05-17.19-6.43-35.12-11.89-53.34-14.33,14.19-19.01,35.27-35.63,57.03-45.25,2.89-1.28,17.71-5.98,18.41-6.66,1.03-1.01,1.23-5.15.24-6.64-.31-.46-5.85-5.13-6.84-5.9-25.34-19.82-57.16-19.98-86.36-8.78,16.7-16.55,42.51-21.7,65.28-17.51-9.62-13.31-33.34-30.79-50.32-29.23-25.36,2.32-28.74,38.78-38.7,56.04-23.9,41.39-66.55,36.68-96.07,68.71-16.52,17.93-20.46,43.08-35.83,60.59-2.55-1.31-5.09-2.65-7.6-4.04,12.59-33.23,43.25-57.35,48.51-93.67,1.69-11.67,1.26-23.87,2.59-35.62,6.16-54.12,40.63-77.99,93.43-78.5l7.57,1.58c-32.5,2.2-69.21,19.38-82.92,50.42-8.04,18.2-8.09,36.69-12.05,55.61-1.36,6.48-5.17,15.37-5.7,21.25-.06.63.1,2.24.78,2.48,8.05-7.6,17.22-14.08,27.18-18.99,26.79-13.19,37.5-15.02,52.96-43.36,9.4-17.23,11.68-40.35,30.88-50.32,2.36-1.22,10.93-4.35,13.17-4.35h17.12c-9.83-11-21.67-20.51-34.3-28.19-14.63-8.9-31.73-17.23-49.28-16.38-1.03.92,7.61,12.36,8.59,14.09.4.7,1.74,2.01.56,2.62-8.86-8.61-17.92-17.77-29.04-23.5-1.34-.69-9.26-4.36-9.86-4.25-1.98.37-2.88,5.46-3.8,7.34-8.54,17.36-16.31,32.68-21.6,51.63-.7,2.51-1.2,5.18-1.37,7.79-1.82,2.28-2.47-12.68-2.41-13.96,1.14-25.08,18.11-39.9,20.72-62.07,1.22-10.4-2.63-23.81,12.36-23.53,15.31.29,44.77,11.73,55.73-1.52,5.99-7.25,4.94-15.78,1.57-23.9-.8-1.94-4.07-5.8-4.08-7.56-.01-3.08,6.52-7.99,6.12-13.52-.82-11.38-18.59-4.42-25.48-3.15-.82.15-2.61,1.05-2.42-.44,6.11-.74,13.16-4.59,18.91-5.38,3.41-.47,8.83.65,11.31-1.43,6.96-5.84-4.3-14.99-2.58-19.23,3.51-8.67,18.66-3.25,22.91-12.18,2.67-5.62-.8-9.2-3.73-13.79-5.36-8.38-14.13-19.43-20.57-27.19-3.71-4.47-7.4-8.27-11.79-12.08,2.21-5.58,5.36-10.19,4.58-16.53-.58-4.71-12.16-26.2-15.22-31.75-3.41-6.17-7.63-11.94-12.49-17.04l.03-1.23c9.9-12.32,9.3-28.22-.5-40.4-12.67-15.74-33.68-18.95-48.18-32.22-.97-.89-4.13-4.8-6.99-7.69,31.48-10.48,64.79-15.94,98.94-15.94,83.39,0,161.78,32.47,220.75,91.44,58.96,58.96,91.44,137.36,91.44,220.75s-32.47,161.78-91.44,220.75ZM441.09,422.89c-17.73,13.44-33.64,28.14-45.7,47.03l-11.61,18.23c5.3-30.2,27.36-57.08,57.31-65.26ZM412.43,199.19c-.65.65-7.62-2.67-9.2-3.13-4.22-1.23-9.96-1.26-13.08-4.02,7.79-2.9,15.58-5.32,23.87-6.38-2.16,4.85-3.23,8.15-1.59,13.53ZM407.7,168.49c-7.89-1.61-14.85,2.04-22.34,3.62,4.05-3.13,14.56-10.43,19.52-10.37,1.82.02,21.77,8,21.85,9.18-3.17,7.23-13.41-1.28-19.04-2.43Z"/><path class="cls-1" d="M347.34,910.24c-.36-12.76-5.3-26.19-10.53-37.77-7.23-16.01-17.6-31.76-33.26-40.54-13.89,10.23-28.81,18.84-44.22,26.61l2.71,50.55-.71,1.57c-1.35.94-8.62.32-9.6-1.16l1.27-139.06,106.97-.15c1.24,1.74-4.15,8.87-5.45,10.62-7.36,9.91-17.2,20.89-26.21,29.34-5.39,5.06-12.26,9.52-16.79,15.2,19.66,25.14,34.47,54.12,46.46,83.64-.17,1.96-8.76.86-10.64,1.13ZM348.11,777.18l-90.46.16c-.86,1.19-.86,2.6-.98,3.99-1.33,16.49.96,33.77,1.59,50.18.2,5.19-.21,10.43-.03,15.61,18.73-7.19,38.63-14.72,54.43-27.39,8.17-6.55,30.8-26.86,34.3-35.71.91-2.3,1.41-4.34,1.15-6.84Z"/><path class="cls-1" d="M833.29,768.82c-.01,1.69-.74,3.19-.79,4.9-1.1,32.52,2.57,62.4,3.88,94.28.42,10.24-.67,20.62.32,30.85,2.88,4.35,31.4-.47,37.32-.82,14.42-.84,29.26,1.75,43.48.83,20.46-1.32,14.31-10.9,14.03-26.9,13.15-4.69,9.38,5.04,9.14,12.77-.23,7.4.67,13.9-2.63,20.95-3.54,7.58-8.85,3.28-14.69,2.48-15.17-2.08-41.62-3.29-56.95-2.53-6.39.32-39.51,6.54-42.24,3.83,1.55-7.11.56-15.05.74-22.45.88-37.25,3.06-75.08-5.35-111.72.96-8.19,7.45-6.44,13.75-6.47Z"/><path class="cls-1" d="M622.31,768.81c-.14,7.52-.86,14.91-.8,22.46.27,31.74,2.2,63.93,3.05,95.8.13,5.09,2.97,19.22.05,22.8-2.42,2.96-4.52-1.73-4.64-3.83-.12-1.95.8-3.55.74-5.23-.24-6.69-1.23-13.91-1.48-20.58-.62-16.98.37-34.25-2.2-51.03-12.85-9.43-27.18-17.85-41.67-24.55-12.26-5.66-26.52-11.48-39.13-16.44-3.14-1.23-11.32-4.84-14.08-4.97-1.6-.08-.98,0-1.15,1.13-.51,3.47-.14,9.95-.03,13.74.96,32.01,6.39,62.06,9.17,93.49.29,3.31,1.5,14.75.06,16.78-1.83,2.58-10.51,3.2-11.3-.96-3.13-16.57-.04-34.86-.15-51.59-.14-20.72-3.49-41.57-3.87-62.28-.07-3.93-.04-19.91,1.96-22.43.6-.76,1.07-1.28,1.9-.43l3.99,6.66c31.58,14.6,63.42,28.54,94.24,44.68-.31-16.47-3.52-32.63-5.92-48.87.87-6.32,6.51-4,11.26-4.36Z"/><path class="cls-1" d="M466.92,814.44c-11.68-2.29-22.88-2.08-34.69-2.25-10.02-.15-20.35-.68-30.4-.82-6.02-.09-11.99-.07-17.92.8-.56,28.95,3.13,57.76,5.85,86.53.83,2.55,3.03,7.17,5.97,7.73,35.22.98,70.22-2.66,104.71-9.1l-1.55,14.42-120.32-1.5,2.32-26.95v-40.36s-1.59-24.27-1.59-24.27c-.87-12.69,1.28-27.09.02-39.56-.23-2.31-.86-4.95-2.26-6.86.1-1.71,6.13-1.06,7.6-1.13l-.38,1.52,1.5.79c7.04-1.55,14.18-1.68,21.38-1.58,15.44.21,30.9,1.28,46.46.06,6.02-.47,10.77-2.75,16.34-4.59l-1.89,11.41c-2.1,2.45-13.4-1.23-16.77-1.52-20.02-1.72-41.51-.49-61.69-1.53-1.5.17-4.04.65-5,1.85-3.02,3.76.62,20.97-.75,26.58l.53.51c16.24,3.78,34.2,5.55,50.96,4.55,10.15-.61,21.62-3.35,31.58-5.35v10.64Z"/><path class="cls-1" d="M92.18,767.3c-.86,2.76-.13,9.7-1.88,11.42-2.45,2.41-13.2-1.22-16.78-1.53-13.39-1.15-29.86-1.34-43.38-1.56-4.22-.07-21.98-1.09-23.65,2.3-.63,1.28-.73,21.41-.41,24,.08.65-.02,1.31.39,1.89.7,1.04,15.89,4.25,18.32,4.52,18.79,2.06,37.63.56,56.14-2.48,2.81-.46,5.47-1.36,8.21-2.07-.7,3.65,2.2,7.62-.48,10.7-11.22-2.44-22.09-2.13-33.44-2.31-10.27-.16-20.86-.68-31.17-.82-6.04-.08-11.96.1-17.93.79.38,8.13-.5,16.61.01,24.7.74,11.71,1.96,23.99,3.05,35.73.6,6.45,1.57,21.89,3.23,27.19.64,2.04,3.36,6.22,5.55,6.63,8.27,1.55,20.93-1.14,29.72.05,25.22-1.53,50.2-4.49,74.99-9.15l-1.59,14.38-118.78-1.02c-1.99-1.45-.06-7.15.02-9.19,1.4-38.94-.59-76.28-.79-114.83,0-1.8.86-3.45.82-5.26-.07-3.35-2.54-6.82-2.31-10.3,1.89.29,4.64-.44,6.33-.02.88.22.61,2.19,2.41,2.34,2.13.18,7.15-1.44,9.89-1.59,20.18-1.11,46.49,3.91,66.08-1.71,1.24-.36,7.1-3.2,7.45-2.82Z"/><path class="cls-1" d="M651.25,908.71c-.83-.83,2.33-15.76,2.35-18.62.22-34.32-1.44-69.05-2.38-103.38-.13-4.92-.13-10.01.36-14.91,1.54-2.2,13.08.69,16.01.84,16.45.87,32.72-2.45,48.81-2.36,5.36.03,12.07,1.45,17.46,1.6,9.79.27,19.63-.54,29.4.3.97.68.8,2.73.77,3.86-.35,9.98-2.17,21.09-3.09,31.17-1.13,12.44-1,17.58-6.21,29.54-10.1,23.16-23.45,36.37-44.13,50.22-17.56,11.77-38.08,20.24-59.35,21.74ZM753.95,776.55c-4.2.39-8.44-.73-12.41-.92-27.42-1.31-53.35-1.2-80.68,3.16-1.09.17-4.21.68-4.72,1.39l5.78,118.65c21.19-3.74,39.43-9.8,56.37-23.18,20.57-16.24,34.84-32.86,39.37-59.54,2.11-12.44,1.81-28.1-3.71-39.56Z"/><path class="cls-1" d="M230.8,911.75l-2.13-1.29c-1.49-25.59-5.21-51.58-14.06-75.68-1.18-3.22-9.76-23.82-11.23-24.52l-1.87-.42c-10.95.31-22.66-.09-33.54.81-2.61.22-8.92,1.2-10.64,3.06-1.86,2.01-7.68,16.67-8.82,20.08-7.77,23.19-10.31,48.3-10.2,72.69-.17,3.33-6.61,7.8-7.93,3.2-.35-1.21,1.26-11.83,1.61-14.06,4.8-30.81,11.72-63.09,23.79-91.81,5.38-12.79,10.87-25.44,21.47-34.9,2.48-.65,7.93,7.8,10.52,9.03,29.15,37.63,40.42,86.91,43.02,133.82ZM200.34,803.78c-5.86-8.82-12.92-16.79-22.36-21.96-6.74,7.3-13.15,15.09-17.25,24.24,13.24-.44,26.76,1.5,39.61-2.28Z"/><path class="cls-1" d="M781.5,908.71c.41-14.21,4.85-28.06,6.09-42.2,2.53-29.08-1.44-57.05-3.81-85.89-.26-3.13-3.44-10.28,1.3-11.65,2.01-.58,13.41-1.8,13.91.29.21.88-3.85,14.77-4.31,17.66-4.42,27.68-2.34,72.52.54,100.89.38,3.75,3.6,17.6,2.94,19.65-.13.42-.77,1.26-1.04,1.26h-15.61Z"/><path class="cls-1" d="M160.43,755.17c4.99,2.17,3.95,7.28-.76,9.05-4.11-2.7-2.45-6.31.76-9.05Z"/><path class="cls-1" d="M196.15,755.15c4.02,3.43,3.35,6.91-.76,9.85l-3.15-4.16,3.92-5.69Z"/></svg>