<?xml version="1.0" encoding="UTF-8"?><svg id="Layer_1" xmlns="http://www.w3.org/2000/svg" viewBox="0 0 1363.74 795.46"><defs><style>.cls-1{fill:#323232;}.cls-2{fill:#d4af37;}.cls-3{fill:#b8860b;}</style></defs><path class="cls-1" d="M227.84,794.47c-.24-8.37-3.48-17.18-6.91-24.78-4.74-10.5-11.54-20.83-21.82-26.59-9.11,6.71-18.9,12.36-29.01,17.46l1.78,33.16-.47,1.03c-.89.61-5.65.21-6.3-.76l.84-91.22,70.17-.1c.81,1.14-2.72,5.82-3.57,6.97-4.83,6.5-11.28,13.71-17.19,19.25-3.54,3.32-8.04,6.25-11.02,9.97,12.9,16.49,22.61,35.5,30.47,54.87-.11,1.29-5.75.56-6.98.74ZM228.35,707.18l-59.34.11c-.56.78-.57,1.7-.64,2.62-.88,10.82.63,22.15,1.04,32.92.13,3.4-.14,6.84-.02,10.24,12.29-4.72,25.34-9.66,35.71-17.97,5.36-4.3,20.2-17.62,22.5-23.43.6-1.51.93-2.85.75-4.49Z"/><path class="cls-1" d="M546.61,701.7c0,1.11-.48,2.09-.52,3.22-.72,21.33,1.69,40.93,2.54,61.84.27,6.72-.44,13.53.21,20.24,1.89,2.85,20.6-.31,24.48-.54,9.46-.55,19.19,1.15,28.52.54,13.42-.87,9.38-7.15,9.2-17.65,8.63-3.07,6.15,3.31,5.99,8.38s.44,9.12-1.72,13.74c-2.32,4.97-5.8,2.15-9.64,1.63-9.95-1.36-27.3-2.16-37.36-1.66-4.19.21-25.92,4.29-27.71,2.51,1.01-4.67.37-9.87.48-14.73.57-24.43,2.01-49.25-3.51-73.29.63-5.37,4.88-4.22,9.02-4.24Z"/><path class="cls-1" d="M408.21,701.7c-.09,4.93-.56,9.78-.52,14.74.17,20.82,1.45,41.94,2,62.84.09,3.34,1.95,12.61.03,14.95-1.59,1.94-2.96-1.13-3.05-2.51-.08-1.28.52-2.33.49-3.43-.15-4.39-.81-9.12-.97-13.5-.41-11.14.24-22.47-1.44-33.47-8.43-6.18-17.83-11.71-27.34-16.1-8.04-3.71-17.4-7.53-25.67-10.79-2.06-.81-7.43-3.17-9.24-3.26-1.05-.05-.64,0-.75.74-.33,2.28-.09,6.53-.02,9.01.63,21,4.19,40.71,6.01,61.33.19,2.17.99,9.67.04,11.01-1.2,1.69-6.9,2.1-7.41-.63-2.06-10.87-.03-22.86-.1-33.84-.09-13.59-2.29-27.27-2.54-40.85-.05-2.58-.03-13.06,1.29-14.72.39-.5.7-.84,1.25-.28l2.62,4.37c20.72,9.58,41.6,18.72,61.82,29.31-.2-10.81-2.31-21.41-3.88-32.06.57-4.14,4.27-2.63,7.39-2.86Z"/><path class="cls-1" d="M306.29,731.62c-7.66-1.5-15.01-1.36-22.75-1.48-6.57-.1-13.35-.44-19.94-.54-3.95-.06-7.86-.04-11.76.52-.37,18.99,2.05,37.89,3.84,56.76.55,1.68,1.99,4.7,3.92,5.07,23.1.65,46.06-1.74,68.69-5.97l-1.02,9.46-78.93-.98,1.52-17.68v-26.47s-1.04-15.92-1.04-15.92c-.57-8.32.84-17.77.01-25.95-.15-1.52-.56-3.25-1.48-4.5.07-1.12,4.02-.69,4.98-.74l-.25.99.98.52c4.62-1.02,9.3-1.1,14.02-1.04,10.13.14,20.27.84,30.47.04,3.95-.31,7.07-1.8,10.72-3.01l-1.24,7.48c-1.38,1.61-8.79-.81-11-1-13.13-1.13-27.23-.32-40.47-1-.99.11-2.65.43-3.28,1.21-1.98,2.46.4,13.75-.49,17.43l.35.33c10.65,2.48,22.43,3.64,33.43,2.99,6.66-.4,14.18-2.2,20.71-3.51v6.98Z"/><path class="cls-1" d="M60.46,700.7c-.57,1.81-.09,6.36-1.23,7.49-1.61,1.58-8.66-.8-11.01-1-8.79-.76-19.59-.88-28.45-1.02-2.77-.04-14.42-.71-15.52,1.51-.41.84-.48,14.04-.27,15.74.05.43,0,.86.26,1.24.46.69,10.42,2.79,12.02,2.96,12.32,1.35,24.68.37,36.83-1.63,1.85-.3,3.59-.89,5.38-1.35-.46,2.4,1.44,5-.32,7.02-7.36-1.6-14.49-1.4-21.93-1.52-6.74-.11-13.69-.45-20.44-.54-3.96-.05-7.84.06-11.76.52.25,5.33-.33,10.9,0,16.21.49,7.68,1.29,15.73,2,23.44.39,4.23,1.03,14.36,2.12,17.84.42,1.34,2.21,4.08,3.64,4.35,5.43,1.02,13.73-.75,19.49.03,16.54-1,32.93-2.94,49.19-6l-1.04,9.44-77.91-.67c-1.31-.95-.04-4.69.01-6.03.92-25.55-.39-50.04-.52-75.32,0-1.18.56-2.26.54-3.45-.04-2.2-1.67-4.47-1.52-6.75,1.24.19,3.04-.29,4.15-.01.58.14.4,1.44,1.58,1.53,1.4.12,4.69-.95,6.49-1.04,13.24-.73,30.49,2.57,43.35-1.12.81-.23,4.66-2.1,4.89-1.85Z"/><path class="cls-1" d="M427.19,793.47c-.54-.54,1.53-10.34,1.54-12.21.14-22.51-.94-45.29-1.56-67.81-.09-3.23-.08-6.57.24-9.78,1.01-1.45,8.58.45,10.5.55,10.79.57,21.46-1.6,32.01-1.55,3.51.02,7.92.95,11.45,1.05,6.42.18,12.88-.36,19.29.2.64.45.53,1.79.5,2.53-.23,6.54-1.43,13.84-2.03,20.45-.74,8.16-.65,11.53-4.07,19.37-6.63,15.19-15.39,23.86-28.95,32.94-11.52,7.72-24.98,13.28-38.93,14.26ZM494.56,706.77c-2.75.25-5.53-.48-8.14-.6-17.99-.86-35-.79-52.92,2.07-.72.11-2.76.45-3.1.91l3.79,77.83c13.9-2.45,25.86-6.43,36.98-15.2,13.49-10.65,22.85-21.56,25.83-39.06,1.39-8.16,1.19-18.44-2.43-25.95Z"/><path class="cls-1" d="M151.4,795.46l-1.4-.85c-.98-16.79-3.42-33.83-9.22-49.65-.77-2.11-6.4-15.63-7.37-16.09l-1.23-.27c-7.18.2-14.87-.06-22,.53-1.72.14-5.85.79-6.98,2.01-1.22,1.32-5.04,10.94-5.79,13.17-5.1,15.21-6.76,31.69-6.69,47.68-.11,2.19-4.34,5.12-5.2,2.1-.23-.79.83-7.76,1.06-9.23,3.15-20.21,7.69-41.39,15.61-60.23,3.53-8.39,7.13-16.69,14.08-22.9,1.63-.43,5.2,5.12,6.9,5.93,19.12,24.69,26.52,57.01,28.22,87.78ZM131.41,724.63c-3.84-5.78-8.47-11.01-14.67-14.4-4.42,4.79-8.63,9.9-11.31,15.9,8.68-.29,17.55.98,25.98-1.5Z"/><path class="cls-1" d="M512.63,793.47c.27-9.32,3.18-18.41,3.99-27.68,1.66-19.08-.94-37.42-2.5-56.34-.17-2.06-2.26-6.75.85-7.64,1.32-.38,8.8-1.18,9.12.19.14.58-2.52,9.69-2.83,11.58-2.9,18.16-1.53,47.57.36,66.18.25,2.46,2.36,11.54,1.93,12.89-.09.27-.51.83-.68.83h-10.24Z"/><path class="cls-1" d="M105.24,692.75c3.28,1.42,2.59,4.77-.5,5.94-2.7-1.77-1.6-4.14.5-5.94Z"/><path class="cls-1" d="M128.67,692.73c2.64,2.25,2.2,4.53-.5,6.46l-2.07-2.73,2.57-3.74Z"/><path class="cls-3" d="M1363.74,370.09c-3.91-.2-7.81.3-11.57,1.4-13.27,3.86-20.91,16.04-30.97,24.53-12.1,10.21-25.1,15.88-41.15,16.62,6.56,2.15,14.17,2.14,20.94.93s12.66-4.25,19.32-4.79c18.01-1.45,35.52,9.09,42.06,25.92-7.28-1.34-14.45-1.34-21.66.4-11.86,2.87-18.03,6.46-31.2,4.48-34.14-5.12-45.51-39.17-85.96-25.24-6.75,2.33-13.71,6.13-19.44,10.34,15.42-6.74,34.16-12.2,50.6-5.8,10.08,3.92,17.51,12.45,26.86,17.71,1.26.71,2.74,1.05,3.82,1.64.52.29.77-.02.58,1.01-12.16,6.32-26.27,7.48-39.46,3.77-9.29-2.62-17.56-9.33-27.18-10.12-16.46-1.35-30.18,7.35-44.79,13.19-.11-11.08,2.95-22.18,6.93-32.41,8.4-21.6,24.49-39.79,49.7-38.12,9.41.62,18.85,5.01,28.25,6.32,26.05,3.62,30.68-15.73,51.31-23.6,17.37-6.62,40.15-1.5,52.99,11.83ZM1263.69,404.67h16.15c18.23,0,32.89-23.64,47.39-32.21l6.27-3.28c-22.98,2.86-33.58,26.68-55.25,32.53l-14.55,2.96ZM1251.41,393.75c-7.33-1.1-14.64-1.88-22.05-.91-17.81,2.34-34.86,18.38-41.61,34.57,12.3-14.3,25.33-27.56,44.56-31.62,6.23-1.31,11.25-1.33,17.52-1.59.55-.02,1.69.34,1.58-.45ZM1333.72,423.78c-12.07-4.39-24.61-5.09-37.29-3.19.27.63,2.32.75,3.01.85,10.74,1.47,21.91,1.71,32.75,2.73.51.05,1.64.42,1.53-.4ZM1268.23,436.97c-8.96-2.95-16.22-10.02-25.46-12.28l16.66,9.94c2.43.93,4.84,2.1,7.42,2.59.47.09,1.49.6,1.38-.25Z"/><path class="cls-3" d="M1341.91,318.23c-21.89.03-30.34,22.5-45.26,34.57-12.3,9.94-25.32,14.19-41.24,11.71-13.23-2.06-25.21-9.57-38.56-10.79,5-5.31,13.08-6.53,19.55-9.33,15.72-6.8,22.38-20.15,35.79-29.25,21.61-14.67,50.24-15.47,69.73,3.1ZM1308.25,319.14c-5.74.87-11.95,2.76-17.14,5.37-12.13,6.11-20.22,18.19-33.18,23.22l-16.53,4.61c5.28.16,10.38,0,15.55-1.04,17.54-3.55,26.79-18.7,41.44-27.24l9.85-4.92Z"/><path class="cls-3" d="M1012.65,374.64l8.25-21.09c8.48-18.33,21.2-33.44,41.58-38.47,25.3-6.24,43.1,7.82,66.83,9.06,4.86.25,9.52-.81,14.32-1.14-17,22.55-36.46,41.13-65.39,46.05-16.67,2.83-33.4-.2-47.81,10.41-2.34,1.72-4.07,3.88-6.18,5.65-.51.43-.74,1.1-1.59.9,5.02-18.27,23.99-31.09,42.13-33.6,5.99-.83,12.12-.74,18.12-1.44,9.99-1.15,19.86-3.25,28.88-7.73.11-.85-.92-.34-1.39-.25-1.74.33-3.48.9-5.26,1.11-11.2,1.3-22.18-.45-33.39,1.63-29.11,5.4-54.22,20.13-60.34,51.1l-3.31,15.56c-4.58-16.73-4.33-34.97-.15-51.78s11.53-27.46,5.16-44.9c-4.74-12.99-11.39-19.77-12.31-35-.88-14.58,4.96-29.91-.44-43.92,16.08,6.81,33.41,16.41,39.46,34,3.6,10.45,2.7,21.39.11,31.96.69-.25,1.23-1.6,1.59-2.27,7.02-12.91,4.66-31.81-2.77-44.1-9.96-16.46-32.73-15.74-34.75-40.31-1.01-12.28,6.24-25.41-3.19-35.7,23.44-6.74,46.65,6.56,54.91,29,6.85,18.62,1.74,24.75-3.19,41.62s4.07,30.09-.67,46.19c-5.04,17.1-20.19,26.68-28.55,41.5-6.14,10.88-9.17,23.6-10.67,35.95ZM1043.11,255.45c2.57-19.86-1.73-46.21-17.73-59.83-.53-.45-4.16-3.32-4.55-2.95,9.14,12.83,13.59,28.18,18.06,43.12l4.22,19.66ZM1025.37,326.42c.69-2.51,2.36-4.48,3.4-6.84,9.04-20.51,3.58-42.3-12.49-57.31,10.1,20.86,16.52,39.75,8.85,62.77-.15.44-.62,1.47.23,1.37ZM1112.69,330.06c-17.24-.83-32.97-5.79-50.22-1.33-13.82,3.58-25.24,10.44-33.46,22.25l13.79-9.63c20.12-12.56,42.69-5.92,64.52-9.61l5.36-1.68Z"/><path class="cls-3" d="M1155.45,376.01c-6.12,5.55-10.05,11.27-13.07,18.99-7.37,18.8-10.22,32.05-29.37,42.95-23,13.1-41.19,7.19-65.55,6.27-16.76-.63-34.14,3.02-50.27-2.72l6.32-3.45c11.5-8.29,14.93-22.3,24.13-32.73,14.26-16.15,34.67-21.31,55.49-16.37-5.8,4.27-10.8,9.37-14.33,15.69-2.25,4.03-3.85,8.45-6.22,12.43-5.57,9.33-14.16,17.97-24.47,21.7-.07.85,1.47.44,1.98.39,32.13-2.86,39.13-33.49,60.56-50.88,15.79-12.81,34.89-16.98,54.79-12.29ZM1128.16,390.57c-19.68,8.35-27.94,30.11-45.97,40.67l-10.42,5.72c9.74-2.11,19.05-6.68,26.59-13.2,8.34-7.21,13.9-17.01,21.38-25.02,2.68-2.87,5.72-5.35,8.42-8.18ZM1055.85,401.94c-.4-.36-1.78.89-2.22,1.19-9.54,6.56-13.8,13.83-21.2,22.01-2.91,3.22-6.3,6-9.33,9.09,14.87-6.18,22.59-20.81,32.74-32.29Z"/><path class="cls-3" d="M1156.36,23.43c.69-.19.76.18,1.14.45,7.26,4.98,14.16,19.38,16.36,27.76,1.19,4.52,1.14,9.07,2.17,13.29,1.38,5.64,12.34,17.71,17.07,22.64,1.32,1.37,4.42,7.88,3.63,9.66-1.51,3.41-12.15,2.87-13.66,6.39-1.57,3.62,2.11,6.09,1.45,9.64-.32,1.72-3.26,3.31-3.35,3.97s1.06,2.35,1.11,3.36c.17,3.6-2.99,4.45-3.56,6.9-.86,3.73,3.22,12.21.37,16.28-3.76,5.38-17.23-1.37-22.3-3.18-15.8-5.65-39.9-13.57-43.15-32.35-2.74-15.86,5.6-29.91,14.97-41.79,10.44-13.24,25.95-25.03,27.73-43ZM1170,76.43c-.8-4.8-1.42-5.9-5.45-9.1-6.67-5.29-14.71-4.52-18.04-.04-2.97,3.58-.37,4.99.24,5.08,9.7,1.43,13.46.37,23.24,4.06ZM1164.54,132.16c-2.24-10.73-2.99-21.67-9.18-31.08-4.65-7.07-12.77-14-20.38-17.6,4.31,4.64,8.39,9.7,11.16,15.44,3.44,7.14,4.97,15.57,8.94,22.45.58,1.01,8.58,11.89,9.46,10.78Z"/><path class="cls-3" d="M1152.72,445.61l24.56-82.34c-3.43.58-7.63.71-11.13.45-7.86-.59-15.52-4.26-23.26-4.94-11.16-.98-20.62,2.37-31.09,5.18-.46.12-1.44.65-1.36-.23,5.24-2.84,10.56-7.09,15.01-11.15,12.66-11.54,20.6-27.9,33.08-37.57,11.21-8.69,21.77-14.14,34.14-7.72-3.34-12.13-1.29-24.69,4.09-36.23,2.93-6.29,4.25-6.98,9.29-9.48,2.57-1.09,10.31-2.43,10.31-2.43,0,0-5.49,6.43-5.24,15.23.21,7.64-.44,16.68-9.27,36.57,10.88-.14,25.31,8.58,9.1,15.93.46,1.97,1.95,3.1,2.23,5.26.7,5.45-3.8,8.2-8.14,10.2,6.18,7.99-.42,13.21-7.61,16.26-1.39.59-5.43,1.33-5.96,2.22l-25.54,84.78h-13.19ZM1201.38,300.48c2.22-7.1,3.43-14.37,3.64-21.83-.73,0-.69,1.53-.83,2.12-1.27,5.46-2.71,12.65-3.2,18.18-.05.51-.42,1.63.39,1.53ZM1190.46,318.69c-23.17-2.09-37.67,14.89-50.93,30.93l11.61-6.81c9.47-6.1,18.06-13.51,28.02-18.83l11.31-5.28ZM1188.64,340.06l-.22-.89c-8.86,1.55-17.88,2.39-26.39,5.44l-8.4,3.64c8.83.02,18.09-.55,26.37-3.87,3-1.2,5.59-3.26,8.65-4.32Z"/><path class="cls-3" d="M1051.3,313.68l4.91-7.6c4.01-6.85,5.47-14.69,4.59-22.61-.49-4.37-3.07-9.14-3.54-13.75-2-19.93,14-37.63,7.8-57.39-.5-1.6-1.8-3.03-1.72-4.64,18.18,3.62,36.05,26.37,37.52,44.36,2.62,31.97-22.58,51.47-49.56,61.64ZM1074.33,292.59c4.47-4.8,8.87-15.21,10.49-21.58,3.43-13.51,1.1-27.26-5.79-39.22-.78-.12-.48,1.08-.44,1.58.43,5.38,2,10.88,2.29,16.37.9,17.32-3.68,33.45-13.21,47.79.48.77,1-.19,1.36-.46,1.51-1.16,4.07-3.15,5.3-4.48Z"/><path class="cls-3" d="M1081.32,147.21c-.13-2.54-3.75-7.48-6.19-7.73s-7.81,3.11-10.65,3.86c-16.7,4.41-27.67-10.9-44.59-6.39l-8.83,5.78c5.22-26.49,26.78-40.72,51.76-29.12,8.25,3.83,19.57,12.34,20.71,22.05.41,3.45.33,9.01-2.22,11.55ZM1078.13,134.02c.2-.85-.48-1.08-.9-1.59-10.14-12.08-28.93-12.24-42.75-7.04h6.61c5.81-.59,12.7-.07,18.5,1.03,6.52,1.23,13.15,3.8,18.54,7.61Z"/><path class="cls-3" d="M1261.34,280.45c-.42-1.53-3.4-6.02-4.44-7.14-1.58-1.69-8.22-9.5-10.16-11.94-6.7-8.45-10.89-10.83-21.91-13.46-8.15-1.94-16.39-2.82-24.81-3.38-.19-.69.18-.76.45-1.14,4.04-5.82,13.67-15.82,19.71-19.41,9.95-5.9,21.58-5.37,31.37.62,17.89,10.96,21.84,34.84,17.6,54.05,9.76-10.57,7.58-23.75,2.48-35.92-5.83-13.91-9.9-19.33-8.87-35.75,1.16-18.62,15.82-43.92,9.46-60.83-3.05-8.12-10.46-11.63-15.27-18.39-15.06-21.16-1.64-43.38-7.4-66.3-.72-2.87-1.71-5.67-2.69-8.45,20.22,2.21,32.75,20.67,34.58,40.28.75,8.03-3.51,15.73-4.11,23.64-.86,11.3,1.45,21.92,5,32.52l.4-1.53c-.45-7.8-2.3-16.41-1.76-24.16.48-6.87,2.95-13.56,4.32-20.25,2.48-12.09.97-23.49,3.1-35.12,1.46-8,4.68-15.86,7.14-23.57,13.44,12.22,21.26,31.45,16.83,49.59,4.53-4.7,10.97-8.44,17.74-7.5-3.28,7.13-6.25,14.5-8.42,22.06s-2.85,14.76-6.97,22.14c-9.15,16.37-28.4,21.49-34.77,40.29-4.14,12.22-4.07,28.09,4.21,38.57-5.72-21.24-1.93-45.99,20.47-55.05-4.25,11.39,2.66,20.51,6.58,30.49,10.51,26.71,5.78,55.65-16.37,74.58-2.48,2.12-6,4.07-8.19,6.36-2.48,2.6-4.56,6.66-6.84,9.53-4.23,5.32-9.46,10.3-16.11,12.32-.57-2.71-1.61-5.04-2.35-7.75ZM1297.79,103.04c6.3-10.88,6.69-21.7,3.18-33.66-.79-.11-.43,1.03-.45,1.58-.36,9.21-.16,18.05-1.95,27.17-.25,1.25-.76,2.38-1.02,3.53-.11.46-.61,1.48.25,1.38ZM1272.78,123.06c.21-11.56-1.19-23.39-5.7-34.1l-5.21-10.48c2.95,11.06,3.53,22.99,6.22,34.03.79,3.26,1.86,7.13,3.67,9.96.29.45-.05.81,1.02.58ZM1311.44,106.69c-15.81,5.45-23.67,21.61-23.19,37.75l4.79-13.63c4.43-9.23,10.62-17.48,18.4-24.12ZM1289.16,256.81c8.32-8.87,11.6-21.9,10.91-33.89-.34-5.84-1.95-11.98-2.66-17.81-1.03-8.52-1.75-17.03-1.43-25.64l-2.42,6.9c-5.2,17.16,3.37,33.41,1.96,50.64-.56,6.84-3.73,13.58-6.36,19.8ZM1285.97,244.76c.3,2.95-.22,6.32,0,9.33l1.23-3.54c3.28-11.2-1.51-22.61-8.5-31.27l-5.02-4.53c4.91,8.35,11.3,20.3,12.28,30.02ZM1264.59,261.36c-2.33-15.14-14.29-29.11-30.24-30.02-4.88-.28-9.58,1.05-14.32,1.82-.11.79,1.03.43,1.58.45,14.39.55,23.94,3.61,33.67,14.55,3.6,4.05,6.21,8.8,9.31,13.2Z"/><path class="cls-2" d="M403.43,168.71c-3.02,7.73-5.26,16.25-9.72,23.29-7.35,11.62-20.2,18.41-32.97,22.57,1.27-13.17,7-26.93,17.6-35.17,7.24-5.63,16.32-8.38,25.08-10.69ZM395.92,175.83c-.3-.27-2.44,1.33-2.89,1.65-3.54,2.47-6.8,5.3-9.77,8.42l-5.91,8.91c6.26-6.25,13.36-11.77,18.57-18.98Z"/><path class="cls-2" d="M454.42,214.66c-12.43-5.25-26.43-12.8-33.52-24.79-3.9-6.59-5.94-14.16-9.17-21.07.55-.41,11.68,3.33,13.25,3.94,18.11,7.07,27.87,22.81,29.44,41.92ZM437.42,194.1c-3.01-6.33-7.86-11.51-13.55-15.51-1.38-.97-3-2.23-4.63-2.68l18.18,18.18Z"/><path class="cls-2" d="M402.64,158.82c-8.05-2.73-16.88-5.1-24.08-9.72-11.34-7.28-17.17-19.39-21.38-31.79,12.91,2.18,26.56,7.84,35.17,18,5.57,6.58,8.53,15.17,10.29,23.51ZM395.92,151.7c.27-.28-2.21-3.17-2.56-3.56-3.63-4.07-8.64-8.26-13.12-11.39-.45-.32-2.59-1.92-2.89-1.65,5.45,6.26,11.14,12.67,18.57,16.6Z"/><path class="cls-2" d="M412.86,157.26c2.77-23.66,23.49-38.6,45.84-41.91-4.4,13.51-12.37,27.34-25.42,34.07-6.46,3.33-13.78,4.93-20.42,7.84ZM438.16,133.54l-10.68,7.31c-2.11,2.4-4.87,4.52-6.92,6.92-.33.39-2.05,2.47-1.77,2.77,7.28-4.61,14.08-10.18,19.36-17Z"/><path class="cls-2" d="M400.79,164.63c-10.75,3.64-21.08,8.82-32.68,10.34-12.26,1.61-23.72-.75-35.03-4.66-4.29-1.48-8.29-3.72-12.71-4.78,15.55-10.88,37.77-16.45,57.42-11.38,8.09,2.09,16.35,6.04,23.01,10.47ZM388.61,163.28c-11.47-1.89-23.5-2.06-34.92.22,10.2,2.03,21.6,2.14,31.93.61.74-.11,2.87-.13,2.99-.83Z"/><path class="cls-2" d="M415.36,163.09c6.82-2.86,13.09-6.9,20.32-9.03,18.55-5.46,36.21.7,51.51,10.08-11.46,5.7-25.38,10.32-38.77,9.55-9.06-.52-23.09-5.73-31.32-9.4-.37-.17-2.02-.86-1.74-1.21ZM457.72,162.24c-9.8-1.62-20.12-2.06-29.85.21,8.09,1.8,16.49,1.76,24.75,1.01l5.11-1.22Z"/><path class="cls-2" d="M407.09,155.83c-7.08-16.98-13.32-28.89-9.79-48.65,1.87-10.46,6.11-21.69,11.14-30.47,6.73,16.62,13.4,33.48,9.37,52.41-1.92,9.05-6.34,19.03-10.72,26.71ZM407.54,143c.91-.2.74-1.13.9-1.87,4.03-18.77,3.09-9.82,0-28.6-.87.19-.75,1.11-.93,1.85-2.01,8.63-.65,19.81.03,28.63Z"/><path class="cls-2" d="M416.37,199.47c-1.39-8.21-5.61-17.4-8.24-25.24-.44-.07-.64-.05-.95.5-3.08,5.57-8.51,24.03-8.56,30.38-.09,9.88,3.74,31.57,8.31,40.08,6.36-9.4,11.53-33.4,9.44-45.73ZM407.24,222.99s-.94-16.51-1.05-19.57c-.3-8.51,1.38-16.56,1.38-16.56,0,0,2,8.42,1.92,15.58-.08,7.24-2.25,20.55-2.25,20.55Z"/><path class="cls-3" d="M1141.49,11.69c-21.6-15.38-77.75-15.28-99.63-1.45-20.77,13.14-24.75,21-31.67,33.38-3.29,5.73-7.33,9.73-9.81,11.51-7.34,5.26-9.58,7.09-20.16,4.96,14.05,18.43,27.45-3.03,42.85-6.64,22.64-5.3,22.78-2.48,41.1,1.23,16.2,3.28,29.97,12.46,36.59,28.22l4.2,12.86c1.04-14.89,9.59-27.57,19.33-38.22,6.59-7.21,26.52-23.4,26.52-32.98,0-5.28-5.32-10.04-9.31-12.88ZM1104.19,78.85c-.03-.47-.04-1.1-.21-1.82-.61-2.54-3.74-7.31-6.14-10.1-6.62-7.71-14.76-13.83-23.1-18.28-3.61-1.92-8.17-6.91-11.83-11.04,16.73,8.76,21.39,10.01,26.94,11.62,8.32,2.42,9.87,3.14,13.79,5.63,5.13,3.25,9.59,7.34,9.59,7.34,0,0-2.76,2.59-5.13,6.29-1.76,2.75-2.21,5.68-3.9,10.36ZM1112.94,29.33c-15.33-.87-27.82-1.95-43.69-.6-8.01.68-27.91,6.77-42.12,8.89,16.78-11.19,35.57-18.07,46.48-19.26,5.81-.63,17.94-.42,24.3.73,12.73,2.3,23.56,4.77,33.42,13.9-6.05-1.51-12.12-3.3-18.4-3.65Z"/><path class="cls-3" d="M1238.17,209.32c-16.6-13.17-45.21-23.51-61.34-4.13-15.99,19.23.66,46.91-24.16,63.64-8.65,5.84-18.83,9.67-27.58,15.63-11.39,7.75-21.22,19.06-35.6,21.48l8.34-5.53c9.72-7.12,18.01-16.71,27.9-23.5,11.78-8.08,26.42-11.39,33.29-25.39,5.6-11.41,4.09-23.39,3.69-35.66-13.05,4.43-26.14,6.39-35.46,17.53-9.99,11.95-7.47,25.51-12.29,39.12-1.86,5.27-4.94,10.62-8.64,14.78,2.64-7.33,5.56-14.58,7.06-22.27,2.67-13.73.61-25.12,8.84-37.56,12.14-18.35,23.95-13.16,40.51-21.35,7.05-3.48,12.81-9.67,19.57-13.63,8.97-5.26,17.54-6.51,27.71-3.91-13.42-20.81-39.79-28.61-63.63-26.79-1.03,6.81-3.78,13.25-7.85,18.76-7.23,9.77-17.18,13.65-22.29,25.47-4.63,10.72-3.29,17.25-2.63,28.27.04.73.34,3.11-.47,3.43-6.97-11.72-9.19-25.24-2.36-37.61,5.3-9.59,15.5-14.09,21.37-22.76,7.15-10.55,6.6-23.26,14.18-33.35-13.97-5.65-32-13.66-39.93-27.16-4.66-7.94-5.74-16.48-8.72-24.94-3.46-9.81-8.18-16.72-13.93-21.65-10.39-8.91-33.57-14.66-50.77-11.71-6.38,1.09-11.72,3.29-16.19,6.25-10.83,7.18-21.25,16.29-24.87,31.65-4.37,18.54-3.29,9.22-3.47,33.34-.08,11.15-.62,18.45-2.39,28.91-1.13,6.67-9.01,19.63-8.39,19.93,1.74.84,15.2-13.74,17.81-19.59,9.18-20.61,17.02-46.29,26.1-51.33,10.14-5.64,19.79-9.1,31.85-6.56,12.16,2.56,24.07,9.2,31.71,19.69,11.97,16.45-2.14,28.14.84,44.2,1.49,8.05,7.03,14.14,8.75,21.73,1.2,5.27.92,10.75,1.65,16.09.69,5.05,2.11,9.99,3.58,14.84-14.65-15.94-11.46-40.2-27.95-55.06-17.84-16.07-45.81-15.39-65.73-3.62-.45.65,4.29,1.93,4.86,2.19,8.14,3.64,13.71,10.82,20.92,15.92,25.05,17.72,58.79,29.88,71.62,60.28,9.68,22.93-.23,47.47-18.32,62.81l-11.32,8c14.75-1.33,28.85,4.24,43.41,5.03,26.69,1.45,42.51-8.64,56.37-30.54,4.3-6.8,8.74-15.53,10.2-23.47.11-.61.1-.82-.6-.6-3.32,1.95-7.08,3.1-10.38,5.09-1.53.92-12.76,9.67-13.51,9,4.32-5.71,8.34-11.73,13.64-16.61,6.66-6.13,14.59-11.41,21.39-17.73,13.31-12.36,26.12-30.9,47.29-25.26.59-.71-3.05-3.32-3.68-3.82ZM1149.07,232.25c-4.11,13.11-14.14,23.66-23.64,33.21,3.96-13.32,12.97-24.63,23.64-33.21ZM1129.15,201.16c7.2-9.13,16.46-18.66,27.92-22.11,9.28-2.79,20-2.45,29.3-.02.11.79-1.03.43-1.58.45-4.76.19-9.23.25-13.97,1.04-18.97,3.15-34.95,15.23-47.2,29.44l5.53-8.79ZM1002.27,114.31c-4.86,11.89-3.32,15.25-7.41,25.71-.12-4.39.04-8.02.77-13.25,2.5-18.03,8.91-33.72,20.04-36.94-5.5,6.61-10.39,17.12-13.4,24.48ZM1080.85,102.37c-9.53-6.78-6.19-4.67-17.14-11.54-4.1-2.57-9.75-5.43-16.32-6.24-4.8-.59-22.77-.25-22.77-.25,28.9-19.37,58.23,5.93,68.06,26.44l-11.83-8.41ZM1075.63,193.12c-10.82-9.07-19.65-21.1-32.1-28.4l-7.69-4.35c13.5,1.51,26.85,10.14,34.48,21.23,2.7,3.93,4.4,8.39,6.91,12.42-.85.2-1.08-.48-1.59-.9ZM1101.32,197.21c-.85.11-.34-.91-.25-1.38,1.11-5.97,3.6-11.98,4.67-18.08,1.37-7.82,1.4-16.04.53-23.92-.75-6.73-2.8-13.2-3.81-19.85,8.97,15.72,14.41,31.34,6.67,48.99-2.19,5-5.83,9.19-7.82,14.25ZM1153.03,289.19c-12.07,5.3-24.42,10.02-37.15,13.56,11.38-10,26.37-14.82,41.38-15.91l-4.24,2.35ZM1200.51,209.31c-7.17,5.27-12.89,12.13-17.79,19.51l-7.72,13.43c3.21-17.92,15.37-36.07,34.56-38.66l-9.05,5.72Z"/><path class="cls-3" d="M222.96,153.75c3.27.37,8.93,2.62,12.13,3.91,8.51,3.43,16.33,8.62,25.21,11.21-2.07-5.67-5.18-11.1-4.58-17.41.99-1,5.88,5.29,6.86,6.19,8.35,7.64,20.44,9.49,27.74,18.55,5.64,7.01,5.99,16.17.29,23.26l-.02.71c2.8,2.94,5.23,6.26,7.19,9.81,1.76,3.19,8.42,15.56,8.76,18.27.45,3.65-1.36,6.31-2.64,9.52,2.53,2.19,4.65,4.38,6.79,6.95,3.71,4.47,8.76,10.83,11.84,15.65,1.69,2.64,3.69,4.71,2.15,7.94-2.45,5.14-11.17,2.02-13.19,7.01-.99,2.44,5.49,7.71,1.49,11.07-1.43,1.2-4.55.55-6.51.82-3.31.45-7.37,2.67-10.88,3.09-.11.85.92.34,1.4.25,3.97-.73,14.19-4.74,14.67,1.81.23,3.19-3.53,6.01-3.52,7.79,0,1.01,1.89,3.23,2.35,4.35,1.93,4.67,2.54,9.59-.91,13.76-6.31,7.63-23.27,1.04-32.08.87s-6.41,7.56-7.11,13.54c-1.5,12.76-11.27,21.3-11.93,35.73-.03.74.34,9.35,1.39,8.04.1-1.5.39-3.04.79-4.48,3.05-10.91,7.52-19.73,12.44-29.72.53-1.08,1.05-4.01,2.19-4.22.34-.06,4.91,2.05,5.68,2.45,6.4,3.3,11.62,8.57,16.72,13.53.68-.35-.1-1.11-.32-1.51-.56-1-5.54-7.58-4.95-8.11,10.1-.49,19.95,4.31,28.37,9.43,7.27,4.42,14.08,9.89,19.74,16.23h-9.85c-1.29,0-6.22,1.8-7.58,2.5-11.05,5.74-12.36,19.05-17.77,28.97-8.9,16.31-15.06,17.37-30.49,24.96-5.73,2.82-11.02,6.56-15.65,10.93-.39-.14-.48-1.07-.45-1.43.31-3.38,2.5-8.5,3.28-12.23,2.28-10.89,2.31-21.53,6.94-32.01,7.89-17.87,29.03-27.76,47.74-29.02l-4.36-.91c-30.39.3-50.24,14.04-53.78,45.19-.77,6.76-.52,13.78-1.49,20.5-3.15,21.68-22.02,35.81-28.7,56.08-.27.83-1.97,5.42-.09,4.96,13.54-9.73,14.71-27.57,25.87-39.68,17-18.44,41.55-15.73,55.3-39.55,5.74-9.94,7.68-30.92,22.28-32.26,9.77-.9,23.43,9.16,28.97,16.83-13.11-2.41-27.96.56-37.58,10.08,16.81-6.45,35.13-6.35,49.71,5.05.57.44,3.76,3.13,3.94,3.39.57.86.46,3.24-.14,3.82-.4.39-8.93,3.1-10.6,3.84-12.53,5.54-24.66,15.11-32.83,26.05,10.49,1.41,20.81,4.55,30.7,8.25-3.84-4.01-8.43-6.91-13.44-9.24-1.46-.68-6.21-1.62-5.75-3.28.13-.47,5.31-5.54,6.14-6.25,6.2-5.3,14.51-9.8,22.21-12.38-1.25,11.47-3.93,24.76,5.04,33.91-3.31-11.99-1.4-22.75,1.51-34.47,6.17-24.83,16.4-48.9,17.74-74.83.56-10.85-1.56-9.8-5.73-18.09-3.27-6.49-5.43-23.21-4.21-30.35.66-3.86,2.02-7.63,2.56-11.65.81-6.16,1.15-8.77,2.59-14.82,1.07-4.48-.17-10.65.77-13.9.71-2.44,4.05-2.92,6.18-1.79,6.06,3.2,7.83,12.75,6.33,18.88-1.05,4.29-1.18,3.33-1.13,8,.03,3.14-.06,6.28-.02,9.41l12.05-1.35c1.99-3.05,5.47-5.78,7.39-8.77,1.88-2.93.3-5.45.76-8.87.25-1.87,1.4-3.9,2.16-5.61-1.69-3.5-6.3-9.23-1.74-12.29-3.14-4.06-7.4-9.95-4.67-15.22.3-.59,1.71-2.45,2.38-1.97,1.36,4.46,3.85,8.72,7.34,11.78-.11,4.81.86,9.5,2.38,14.01.29.85,1.24,1.69,1.26,2.38.03,1.06-2.43,6.11-2.68,8.3-.41,3.48.09,7.36.34,10.84-2.49,3.17-6.51,5.45-7.22,9.77-.08.46-.37,1.68.41,1.56,1.29-4.88,5.45-7.81,8.65-11.33-1.94-7.05-.12-12.76,2.8-19.15-4.36-5.22-2.65-12.83-4.2-18.23-.36-1.24-5.47-6.49-6.79-10.16-1.44-4-2.85-16.84,4.48-13.64,1.46.64,5.49,8.45,6.89,10.52,2.29,3.39,7,8.3,8.61,11.56,1.01,2.04,4.71,15.08,4.73,17.17.06,4.85-2.36,10.26-2.72,15.15-.35,4.81.37,9.34,1.4,13.99.8-.13.51-2.38.47-3-.14-2.53-.6-4.61-.48-7.31.37-8.2,4.22-15.71,1.97-23.97-.31-1.13-2.49-5.4-2.43-5.81.1-.68.7-.56,1.24-.36.58.22,5.97,9.04,6.63,10.35,3.03,5.99-.12,12.46-.53,18.87-.34,5.2.47,10.95.01,16.05-.34,3.78-9.58,18.3-12.01,22.82-1.74,3.24-10.14,18.04-10.44,20.28-.33,2.47.96,6.89.94,9.58-.04,5.81-2.17,10.82-1.87,17.87,1.34,30.85,13.84,60.64.39,91.13-3.2,7.25-8.35,13.21-11.61,20.47-2.29,5.11-2.32,9.92-8.18,12.9s-17.52,1.46-23.68-.31c-7.97-2.3-14.1-8.61-21.23-12.68-9.24-5.26-18.35-7.99-27.1-14.6-6.24-4.72-12.84-13.06-21.43-12.23-4.16.4-7.18,2.95-10.89,4.45,3.46-7.48,6.35-15.33,11.08-22.14,8.37-12.05,20.25-19.97,34.74-22.77.11-.8-1.04-.43-1.6-.45-21.24-.79-35.33,9.97-42.86,29.33-.66.65-.83-.04-.91-.68-.41-3.22.19-6.93.45-10.1.04-.5.33-1.71-.45-1.59-4.76,14.96-10.65,30.14-23.42,40.05-18.24,14.15-42.38,13.82-61.04,26.94-10.06,7.07-17.52,18.32-25.97,27.18,1.4.09,3.39-1.14,4.54-1.87,9.68-6.12,17.34-15.95,27.68-21.81,11.76-6.67,25.72-7.78,38.34-12.29-2.92,4.99-4.84,10.48-7.55,15.59-8.11,15.25-19.22,28.45-36.55,33.1-12.41,3.33-24.7,1.47-37.26,2.15-4.33.24-8.68,1.25-13.04.93,8.47-8.07,17.13-15.98,24.98-24.73,16.29-18.17,32.25-42.95,30.49-68.53-.67-9.75-5.56-16.1-8.73-24.72-10.45-28.39,12.16-56.07-16.94-80.67-5.28-4.46-11.56-6.31-16.66-9.92-.91-.65-1.88-1.13-.64-1.86,1.67-.98,3.42-1.62,5.06-2.73,6.15-4.19,9.76-10.72,11.46-17.87,1.46-6.15,1.06-11.1.76-17.33l-4.36,13.74c-6.47,14.64-17.01,20.61-32.87,20.79-.6,0-1.01.4-1.26-.61,11.88-4.79,22.07-19.38,25-31.6.11-.46.6-1.5-.25-1.39-3.16,8.17-10.31,14.71-18.34,18.09-13.1,5.52-24.4,5.21-35.74,15.58-3.18,2.91-5.24,6.46-8.06,9.36-.47.49-.66,1.17-1.56.96,1.32-6.15,2.84-12.08,6.05-17.55,9.77-16.67,30.63-21.63,42.53-36.29l-.68-.22c-9.23,6.14-20.32,8.28-30.33,12.75-10.94,4.88-18.19,10.92-25.54,20.29-5.92,7.56-10.41,17.2-19.52,21.49l4.77-5.54c13.49-20.88,15.85-43.89,37.7-58.99,6.52-4.5,14.23-7.45,20.31-12.45-7.24.98-14.51,3.78-21.32,6.4-14.35,5.54-26.03,11.6-34.78,24.8l-2.1,3.62c-.37-23.5,16.63-42.24,36.8-51.86l9.47-3.58c-15.55-.52-33.32.74-46.04,10.55-1.69,1.3-3.2,3-4.82,4.34-.37.31-.92,1.21-1.38.45,4.49-18.27,24.38-27.04,40.55-32.77,1.7-.6,3.43-1.32,5.28-1.37l-14.21-2.05c-10.05-2.73-19.96-9.57-21.99-20.4,11.94,7.19,23.98,8.98,37.46,5.16,8.78-2.48,16.49-7.61,25.31-9.75,0-.72-1.44-.83-2-.97-6.38-1.59-13.94-.86-20.45-.4-.76-.65,4.34-4.57,4.89-4.96,9.56-6.8,23.89-9.66,35.43-10.16l-9.93-3.12c-5.71-2.92-10.3-7.82-11.6-14.29,3.25,1.07,6.1,3.1,9.38,4.14,12.1,3.85,25.03-.39,37.59.45,5.37.36,10.81,1.76,15.81,3.66-1.62-6.76-8.05-10.43-13.28-14.21,2.13.17,4.56-.23,6.64,0ZM256.18,197.29c-15.39,1.66-29.25,8.9-43.39,14.58l-3.35,1.91c3.55-.16,7.17-.75,10.63-1.5,10.39-2.26,23.42-8.48,33.21-13.08.97-.46,2.39-.9,2.9-1.91ZM256.64,215.62l-5.19,2.82-15.79,5.75-13.84,3.33c12.37,2.81,27.44-1.11,34.82-11.9ZM228.22,255.94c3.92-13.11-10.18-19.04-20.04-22.8-12.09-4.6-23.42-7.39-36.48-6.01-1.42.15-10.42,1.68-10.83,2.24.52,2.71,3.31,3.98,5.01,5.86,13.36,14.75,25.37,41.28,44.81,48.1,5.58,1.96,14.85,2.29,14.33-5.85-1.52.18-2.41,1.43-4,1.72-15.07,2.78-29.18-20.17-36.8-29.89-4.38-5.59-9.53-10.62-13.73-16.28,15.28-.8,35.04,3.68,47.61,12.65,4.29,3.06,6.44,6.78,10.13,10.26ZM274.05,233.02c4.31-.91,8.32-3.01,12.86-2.09,3.24.66,9.14,5.56,10.96,1.4-.05-.68-11.53-5.27-12.58-5.28-2.85-.03-8.91,4.17-11.24,5.97ZM254.35,263.26c-3.79-6.27-7.96-12.63-9.03-20.06l-1.05-7.88c-3.05,10.74-1.14,23.25,10.08,27.95ZM289.63,248.6c-.95-3.09-.33-5,.91-7.79-4.78.61-9.26,2-13.74,3.67,1.8,1.59,5.1,1.61,7.53,2.31.91.26,4.92,2.18,5.3,1.8ZM218.6,266.94c-.06-.07-1.03-.29-1.61-.9-1.43-1.5-2.94-3.6-2.99-5.77-.03-1.53,1.22-3.1-.17-4.38-5.71-3.99-10.57-9.87-17.67-11.42-.2.95.48,1.04,1.04,1.48,1.73,1.35,4.26,2.58,5.85,4.23,4.85,5.05,2.92,16.06,11.63,17.74.58.11,5.1.32,3.93-.99ZM272.22,314.59c-.11-.71-.85-.87-1.38-1.13-11.27-5.73-26.64-6.26-32.16-19.62l-4.03-14.06c-.5,10.02-1.8,19.85,6.86,26.81,8.11,6.52,21.18,4.9,30.71,8.01ZM231.43,349.88l-14.2-52.24c.81,13.92-.39,28.42,6.33,41.09,2.06,3.88,5,7.82,7.86,11.15ZM405.57,333.38v-7.1c0-1.21,2.16-6.73,2.82-8.18,1.48-3.28,3.69-6.12,5.44-9.23-.78,0-1.81,1.25-2.31,1.82-5.24,5.92-8.73,13.3-6.62,21.32.14.53-.03,1.49.68,1.38ZM237.86,453.44c21-24.07,16.88-60.55-1.46-84.92l-3.58-4.44c2.59,7.11,5.11,14.15,7.2,21.44,4.4,15.37,7.41,27.52,4.58,43.73-1.45,8.29-4.5,16.13-6.73,24.19ZM306.13,377.38c-17.24,4.71-29.94,20.19-32.99,37.57l6.68-10.5c6.95-10.87,16.1-19.34,26.31-27.07ZM236.01,430.07l-5.49-44.9c.27,10.88-3.37,21.66.45,32.31l5.04,12.59ZM404.65,431.44c4.58-11.51,5.59-25.25.23-36.66,1.09,8.89,1.41,17.85.68,26.81-.23,2.78-.89,5.67-1.14,8.49-.04.48-.68,1.46.22,1.37ZM414.73,451.61c7.35-10.4,11.86-22.61,11.48-35.53-.13-4.41-1.02-9.3-1.39-13.73-.11-1.29.06-2.6,0-3.89l-.86,3.49c-.2,17.35-4.64,32.08-9.46,48.28-.14.46-.64,1.47.23,1.38ZM292.38,441.07l-18.01,9.71c-9.67,5.49-18.38,13.37-22.77,23.74,11.82-13.23,29.34-19.9,40.78-33.45ZM247.92,507.05l-.22-.9-15.5,9.24-25.97,13.21c15.06-2.33,31.15-9.45,40.97-21.37.13-.16.5-.17.72-.17Z"/><path class="cls-3" d="M276.34,596.88c-3.32,4.69-6.43,9.23-8.47,14.67-3.03,8.07-3.82,16.84-6.64,24.98-9.9,28.66-35.04,41.2-64.42,39.64-12.95-.69-25.56-4.83-38.48-5.97-13.69-1.21-26.46,1.42-40.18-1.52-.91-.2-6.07-1.43-6.33-1.7-.78-.8.3-.77.65-.95,10.56-5.39,15.14-9.63,21.53-19.7,8.77-13.81,11.98-23.19,28.37-30.29,19.03-8.23,39.54-2.51,58.96-8.63.21.79-.33.92-.68,1.38-2.33,3.02-5.74,5.84-8.26,8.7-14.75,16.72-24.31,39.77-47.42,46.75-.09.86.96.37,1.46.32,6.97-.69,14.91-3.5,20.95-7.01,20.7-12.01,27.48-37.06,47.09-49.6,12.32-7.87,27.36-10.77,41.84-11.08ZM252.97,614.29c-16.2,7.27-23.4,24.3-36.19,35.52-2.77,2.43-5.94,4.5-8.93,6.65l-8.94,5.03c6.54-.93,12.58-3.31,18.11-6.86,15.6-10.03,22.57-28.01,35.96-40.33ZM186.52,625.29c-16.2,4.55-28.41,17.01-40.32,28.18l-7.34,5.72c15.36-3.69,26.27-15.76,37.57-25.89l10.09-8.01Z"/><path class="cls-3" d="M162.7,485.52v-6.64c0-7.44-7.43-20.15-12.6-25.44-10.53-10.79-28.73-13.96-35-28.7-6.93-16.32,2.64-33.44-4.2-49.88.29-.57,1.36-.15,1.84-.01,8.82,2.6,26.13,13.06,34.5,18.19,21,12.87,30.46,29.52,28.72,54.67-.59,8.58-7.02,29.66-11.82,36.75-.4.59-.52,1.25-1.46,1.06ZM162.24,454.36c-.34-23.36-11.49-44.87-33.91-53.61,10.97,8.87,19.63,19.68,25.28,32.68l8.62,20.93Z"/><path class="cls-3" d="M122.83,595.04c-9.19-12.68-.99-26.98,1.31-40.16,2.07-11.86,1.38-24.8-2-36.37-3.35-11.45-10.53-20.81-11.63-33.28-1.4-15.95,6.82-30.91,2.23-46.91,1.14-1.18,14.57,7.82,16.37,9.06,22.04,15.24,32.18,30.05,24.38,58.03-7.48,26.81-27.37,46.56-30.21,75.19-.47,4.8-.52,9.61-.47,14.43ZM137.49,527.67c9.9-21.44,8.09-49.34-11.9-64.15,2.29,4.73,4.65,9.46,6.42,14.43,6.09,17.14,7.2,30.26,5.16,48.26-.06.5-.53,1.56.32,1.47Z"/><path class="cls-3" d="M195.53,512.85c-.63.64-5.73,5.23-6.25,4.74,3.54-8.2,7.11-16.72,6.41-25.88-.92-12.04-9.13-22.54-11.32-34.5-3.42-18.61,7.17-34.86,4.86-52.98-.19-1.45-2.22-9.45-1.78-9.9,1.35-.14,2.37,1.09,3.42,1.85,33.33,24.17,39.47,58.88,19.57,94.69-3.76,6.77-9.54,16.57-14.9,21.99ZM203.94,487.81c3.7-16.87,2.93-35.25.24-52.24l-4.35-12.37c.54,3.18,1.21,6.62,1.39,9.83.44,7.79-.9,15.68-.47,23.39.55,10.06,3.82,19.76,2.88,29.92-.05.51-.54,1.56.32,1.47Z"/><path class="cls-3" d="M324.92,467.64c-11.1,7.37-11,23.25-17.18,33.93-5.83,10.08-15,13-24.03,19.05-7.18,4.81-13.1,11.62-21.27,14.94-7.57,3.07-16.06,3.62-24.14,4.04-.21-.97.5-1.04,1.06-1.45,3.8-2.75,7.67-4.57,11.31-7.93,20.83-19.22,18.08-48.12,47.34-62.18,8.13-3.91,19.07-5.81,26.89-.38ZM274.97,513.01l11.44-10.78,16.5-23.13c-.51-.52-9.72,8.93-10.55,9.84-4.73,5.19-9.48,11.47-13.38,17.32-.5.75-4.29,6.45-4.02,6.75Z"/><path class="cls-3" d="M213.56,408.99c-2.03-2.54-3.2-5.65-5.12-8.39-4.33-6.18-8.82-8.61-14.13-13.37-16.03-14.36-22.81-35.13-45.12-41.95-4.6-1.41-9.36-1.78-13.99-2.96,13.78-13.38,37.17-10.94,52.66-1.8,17.07,10.08,25.61,23.52,26.63,43.48.42,8.13.07,16.95-.94,24.99ZM204.85,380.58c-4.31-18.14-22.82-36.21-41.69-38.03l9.86,5.48c9.1,5.81,17.05,13.14,24.04,21.33l7.8,11.21Z"/><path class="cls-3" d="M161.62,361.95c15.91,15.46,23.85,38.24,20.78,60.33-.79-.13-.8-.91-1.04-1.48-1.47-3.43-2.27-7.21-3.92-10.75-9.67-20.72-26.93-22.7-44.84-32.61-10.03-5.55-18.4-13.97-29.48-17.5,2.93-3.9,7.74-6.5,12.26-8.13,16.47-5.93,33.79-1.97,46.24,10.13ZM164.53,382.41c.42-.48-3.1-4.66-3.65-5.28-8.47-9.63-18.72-14.57-31.63-15.33l14.97,6.33c7.28,4.03,13.76,9.22,20.31,14.28Z"/><path class="cls-3" d="M483.7,580.38c-23.97,2.7-35.45,38.23-64.29,44.77-24.63,5.59-33.8-4.68-54.18-12.91-13.49-5.44-25.45-6.21-38.47,1.14-.1.84.98.4,1.47.33,31.51-4.28,33.83,7.52,58.9,16.96,23.35,8.8,32.67.09,53.38-6.88,21.27-7.16,37.79-3.01,53.75,12.49,1.47,1.43,9.59,10.42,8.46,11.93-9.65-4.43-21.05-3.19-30.69.7-6,2.42-11.34,6.62-17.26,9.32-25.98,11.85-46.83,5.86-70.58-7.19-20.06-11.02-37.39-30.69-62.85-24.51-9.94,2.41-14.53,7.8-21.86,13.88-.52.43-3.96,3.13-4.34,2.76,5.49-19.72,15.92-36.91,36.22-43.74,18.19-6.11,30.02-.63,47.41.2,24.66,1.18,38.3-27.27,60.27-34.57,14.68-4.88,29.3-2.32,42.1,5.98,1.49.97,10.97,8.21,11.03,9.12.08,1.13-1.08.23-1.14.23-2.28,0-5.16-.24-7.33,0ZM459.18,576.26c-26.3.27-35.99,30.19-60.11,35.43l-6.79,1.22c3.99.58,7.58.51,11.56-.12,21.38-3.42,30.98-24.64,48.99-33.96l6.36-2.57ZM473.39,634.46c-2.63-.34-5.36-1.21-8-1.4-18.05-1.31-30.84,10.33-48.11,11.49-13.12.88-20.91-1.92-32.93-5.6-.45-.14-1.37-.78-1.69-.15,14.09,9.13,30.69,13.12,47.28,9.25,11.91-2.77,22.34-10.79,34.65-12.55l8.8-1.05Z"/><path class="cls-3" d="M463.76,529.52l-.23.91c-10.65-.65-20.63,6.2-27.5,13.74-11.67,12.79-16.37,25.07-32.34,35.02-25.73,16.04-44.93,5.34-70.79-1.99-.59-.17-1.16-.05-1.56-.72,1.47-1.43,2.36-3.43,4.25-4.45,6.03-3.26,14.47-4.8,21.25-8.53,20.64-11.36,27.77-32.74,50.89-41.67,20.05-7.74,38.57-4.05,56.02,7.69ZM430.31,530.43c-24.26,2.36-35.58,26.69-55.44,37.35l-13.76,6.17c2.2-.68,4.44-.23,6.59-.51,24.48-3.15,36.34-27.6,55.77-39.54l6.83-3.47Z"/><path class="cls-3" d="M395.95,665.62c-3.9,3.52-9.99,5.7-15.12,7.1-10.12,2.75-20.81,3.02-31.08.83-10.41-2.22-19.52-8.42-30.16-9.71-12.71-1.55-24.42,2.89-34.99,9.57,5.92-20.48,29.64-40.7,51.54-39.4,23.65,1.41,37.86,25.41,59.81,31.62ZM366.62,660.12c-7.39-3.03-13.96-7.84-21.64-10.21-10.25-3.16-20.29-2.94-30.13,1.5-.1.82,1.03.44,1.54.4,6.27-.57,10.51-1.15,16.96-.35,11.16,1.39,21.21,6.49,31.88,8.9.47.11,1.49.61,1.39-.25Z"/><path class="cls-3" d="M339.58,475.89c.32,10.52,3.73,22-1.29,31.93-1.42,2.8-4.15,5.01-5.51,7.32-1.22,2.07-1.62,5.38-2.81,7.73-2.05,4.06-2.01,2.18-5.25,1.12-2.95-.96-6-1.66-8.9-2.79-.38-3.7,2.79-6.47,3.4-10,1.01-5.82-.3-9.09,2.71-15.17,2.65-5.34,7.13-8.08,10.52-12.39,2.13-2.71,3.34-7.73,7.14-7.75Z"/><path class="cls-3" d="M330.88,529.05h7.56c.88,0,3.16,1.96,3.63,2.79,2.4,4.3-1.63,8.75-5,10.95l-.27-4.31c-.17-1.33-1.27-3.71-2.05-4.82-1.11-1.58-3.43-2.68-3.87-4.61Z"/><path class="cls-3" d="M305.68,590.92c1.69.52,2.87.68,3.69.62,0,0,0,0,0,0,0,0,1.09-.06,2.12-.43,3.56-1.29,5.85-5.18,5.15-9.55-.66-4.13-10.97-5.06-13.26-8.5,7.25.48,17.75,10.48,21.05-1.18,2.81-9.91-8.9-8.66-13.89-12.17-.67-.47-1.27-1.38-1.2-2.24.59-.58,13.16,4.63,15.81,4.62,5.24-.02,7.07-6.36,6.09-10.71-1.23-5.46-14.17-6.08-17.95-8.99-.58-.45-.22-1.25-.28-1.88l17,5.28c9.9-4.54,2.34-13.81-4.47-17.13-8.87-4.33-18.97-7.62-28.42-3.81-12.35,4.98-24.37,13.81-36.61,19.3-20.75,2.4-40.54,2.76-61.4,2.34-11.06-.22-21.08-1.36-32.03,1.84-11.04,3.23-18.84,10.51-25.91,19.22.89-4.62,3.64-9.27,6.63-12.84,6.31-7.5,15.21-11.17,22.45-17.42,18.35-15.86,22.42-34.53,14.92-57.51-.65-1.99-4.26-11.48-5.75-12.12-4.66,12.15-13.53,22.13-18.64,34.05-3.25,7.59-4.67,15.73-7.13,23.58-6.38,20.4-20.37,33.9-23.82,55.92-2.47,15.77,1.09,30.79-2.11,46.47-.69,3.39-1.75,6.66-2.6,9.99,2.98-1.15,4.84-5.18,6.04-7.93,2.63-6.06,3.44-12.77,5.86-18.88,7.67-19.39,26.34-20.35,42.64-29.31,7.82-4.29,14.89-10.54,23.05-14.07,7.32-3.17,15.32-4.26,23.22-4.96l-11.76,4.96c-13.81,6.32-24.71,17.79-38.65,23.67-11.27,4.76-25.18,6.12-30.7,19.02,3.03-1.05,5.74-2.79,8.81-3.79,14.81-4.85,30.25-1.98,45.44-3.59,15.49-1.65,27.06-9.18,41.29-14.16,6.39-2.23,12.92-3.89,19.48-5.5.26-.34-3.53-2.95-1.59-3.2.5-.07,7.73,3.49,9.27,4.01,5.36,1.82,10.68,2.87,16.4,2.42,3.22-.25,6.33-1.7,9.61-1.39,3.01.28,5.57,3.13,8.46,3.99l3.68,1.97ZM177.36,500.19c-1.53,14.15-8.32,26.71-19.24,35.74l19.24-35.74ZM173.46,565.7c-12.79,4.42-23,12.43-32.29,22,6.61-22.35,33.43-28.68,54.07-28.86l-21.77,6.86ZM206,590.91c-4.91.62-9.96.42-14.88.92l21.89-5.83,18.44-6.53c-7.14,5.66-16.31,10.28-25.44,11.44Z"/><path class="cls-3" d="M295.56,588.5c-1.3,0-3.06.4-5.37,1.83l-27.14,84.44c4.96-.42,10.11,1.33,14.94.05,8.96-27.14,17.91-54.29,26.87-81.43-3.09-1.58-6.18-3.2-9.3-4.89Z"/></svg>