<?xml version="1.0" encoding="UTF-8"?><svg id="Layer_1" xmlns="http://www.w3.org/2000/svg" viewBox="0 0 617.48 699.74"><defs><style>.cls-1{fill:#323232;}.cls-2{fill:#d4af37;}.cls-3{fill:#b8860b;}</style></defs><path class="cls-1" d="M227.84,698.75c-.24-8.37-3.48-17.18-6.91-24.78-4.74-10.5-11.54-20.83-21.82-26.59-9.11,6.71-18.9,12.36-29.01,17.46l1.78,33.16-.47,1.03c-.89.61-5.65.21-6.3-.76l.84-91.22,70.17-.1c.81,1.14-2.72,5.82-3.57,6.97-4.83,6.5-11.28,13.71-17.19,19.25-3.54,3.32-8.04,6.25-11.02,9.97,12.9,16.49,22.61,35.5,30.47,54.87-.11,1.29-5.75.56-6.98.74ZM228.35,611.47l-59.34.11c-.56.78-.57,1.7-.64,2.62-.88,10.82.63,22.15,1.04,32.92.13,3.4-.14,6.84-.02,10.24,12.29-4.72,25.34-9.66,35.71-17.97,5.36-4.3,20.2-17.62,22.5-23.43.6-1.51.93-2.85.75-4.49Z"/><path class="cls-1" d="M546.61,605.99c0,1.11-.48,2.09-.52,3.22-.72,21.33,1.69,40.93,2.54,61.84.27,6.72-.44,13.53.21,20.24,1.89,2.85,20.6-.31,24.48-.54,9.46-.55,19.19,1.15,28.52.54,13.42-.87,9.38-7.15,9.2-17.65,8.63-3.07,6.15,3.31,5.99,8.38s.44,9.12-1.72,13.74c-2.32,4.97-5.8,2.15-9.64,1.63-9.95-1.36-27.3-2.16-37.36-1.66-4.19.21-25.92,4.29-27.71,2.51,1.01-4.67.37-9.87.48-14.73.57-24.43,2.01-49.25-3.51-73.29.63-5.37,4.88-4.22,9.02-4.24Z"/><path class="cls-1" d="M408.21,605.98c-.09,4.93-.56,9.78-.52,14.74.17,20.82,1.45,41.94,2,62.84.09,3.34,1.95,12.61.03,14.95-1.59,1.94-2.96-1.13-3.05-2.51-.08-1.28.52-2.33.49-3.43-.15-4.39-.81-9.12-.97-13.5-.41-11.14.24-22.47-1.44-33.47-8.43-6.18-17.83-11.71-27.34-16.1-8.04-3.71-17.4-7.53-25.67-10.79-2.06-.81-7.43-3.17-9.24-3.26-1.05-.05-.64,0-.75.74-.33,2.28-.09,6.53-.02,9.01.63,21,4.19,40.71,6.01,61.33.19,2.17.99,9.67.04,11.01-1.2,1.69-6.9,2.1-7.41-.63-2.06-10.87-.03-22.86-.1-33.84-.09-13.59-2.29-27.27-2.54-40.85-.05-2.58-.03-13.06,1.29-14.72.39-.5.7-.84,1.25-.28l2.62,4.37c20.72,9.58,41.6,18.72,61.82,29.31-.2-10.81-2.31-21.41-3.88-32.06.57-4.14,4.27-2.63,7.39-2.86Z"/><path class="cls-1" d="M306.29,635.91c-7.66-1.5-15.01-1.36-22.75-1.48-6.57-.1-13.35-.44-19.94-.54-3.95-.06-7.86-.04-11.76.52-.37,18.99,2.05,37.89,3.84,56.76.55,1.68,1.99,4.7,3.92,5.07,23.1.65,46.06-1.74,68.69-5.97l-1.02,9.46-78.93-.98,1.52-17.68v-26.47s-1.04-15.92-1.04-15.92c-.57-8.32.84-17.77.01-25.95-.15-1.52-.56-3.25-1.48-4.5.07-1.12,4.02-.69,4.98-.74l-.25.99.98.52c4.62-1.02,9.3-1.1,14.02-1.04,10.13.14,20.27.84,30.47.04,3.95-.31,7.07-1.8,10.72-3.01l-1.24,7.48c-1.38,1.61-8.79-.81-11-1-13.13-1.13-27.23-.32-40.47-1-.99.11-2.65.43-3.28,1.21-1.98,2.46.4,13.75-.49,17.43l.35.33c10.65,2.48,22.43,3.64,33.43,2.99,6.66-.4,14.18-2.2,20.71-3.51v6.98Z"/><path class="cls-1" d="M60.46,604.99c-.57,1.81-.09,6.36-1.23,7.49-1.61,1.58-8.66-.8-11.01-1-8.79-.76-19.59-.88-28.45-1.02-2.77-.04-14.42-.71-15.52,1.51-.41.84-.48,14.04-.27,15.74.05.43,0,.86.26,1.24.46.69,10.42,2.79,12.02,2.96,12.32,1.35,24.68.37,36.83-1.63,1.85-.3,3.59-.89,5.38-1.35-.46,2.4,1.44,5-.32,7.02-7.36-1.6-14.49-1.4-21.93-1.52-6.74-.11-13.69-.45-20.44-.54-3.96-.05-7.84.06-11.76.52.25,5.33-.33,10.9,0,16.21.49,7.68,1.29,15.73,2,23.44.39,4.23,1.03,14.36,2.12,17.84.42,1.34,2.21,4.08,3.64,4.35,5.43,1.02,13.73-.75,19.49.03,16.54-1,32.93-2.94,49.19-6l-1.04,9.44-77.91-.67c-1.31-.95-.04-4.69.01-6.03.92-25.55-.39-50.04-.52-75.32,0-1.18.56-2.26.54-3.45-.04-2.2-1.67-4.47-1.52-6.75,1.24.19,3.04-.29,4.15-.01.58.14.4,1.44,1.58,1.53,1.4.12,4.69-.95,6.49-1.04,13.24-.73,30.49,2.57,43.35-1.12.81-.23,4.66-2.1,4.89-1.85Z"/><path class="cls-1" d="M427.19,697.75c-.54-.54,1.53-10.34,1.54-12.21.14-22.51-.94-45.29-1.56-67.81-.09-3.23-.08-6.57.24-9.78,1.01-1.45,8.58.45,10.5.55,10.79.57,21.46-1.6,32.01-1.55,3.51.02,7.92.95,11.45,1.05,6.42.18,12.88-.36,19.29.2.64.45.53,1.79.5,2.53-.23,6.54-1.43,13.84-2.03,20.45-.74,8.16-.65,11.53-4.07,19.37-6.63,15.19-15.39,23.86-28.95,32.94-11.52,7.72-24.98,13.28-38.93,14.26ZM494.56,611.05c-2.75.25-5.53-.48-8.14-.6-17.99-.86-35-.79-52.92,2.07-.72.11-2.76.45-3.1.91l3.79,77.83c13.9-2.45,25.86-6.43,36.98-15.2,13.49-10.65,22.85-21.56,25.83-39.06,1.39-8.16,1.19-18.44-2.43-25.95Z"/><path class="cls-1" d="M151.4,699.74l-1.4-.85c-.98-16.79-3.42-33.83-9.22-49.65-.77-2.11-6.4-15.63-7.37-16.09l-1.23-.27c-7.18.2-14.87-.06-22,.53-1.72.14-5.85.79-6.98,2.01-1.22,1.32-5.04,10.94-5.79,13.17-5.1,15.21-6.76,31.69-6.69,47.68-.11,2.19-4.34,5.12-5.2,2.1-.23-.79.83-7.76,1.06-9.23,3.15-20.21,7.69-41.39,15.61-60.23,3.53-8.39,7.13-16.69,14.08-22.9,1.63-.43,5.2,5.12,6.9,5.93,19.12,24.69,26.52,57.01,28.22,87.78ZM131.41,628.92c-3.84-5.78-8.47-11.01-14.67-14.4-4.42,4.79-8.63,9.9-11.31,15.9,8.68-.29,17.55.98,25.98-1.5Z"/><path class="cls-1" d="M512.63,697.75c.27-9.32,3.18-18.41,3.99-27.68,1.66-19.08-.94-37.42-2.5-56.34-.17-2.06-2.26-6.75.85-7.64,1.32-.38,8.8-1.18,9.12.19.14.58-2.52,9.69-2.83,11.58-2.9,18.16-1.53,47.57.36,66.18.25,2.46,2.36,11.54,1.93,12.89-.09.27-.51.83-.68.83h-10.24Z"/><path class="cls-1" d="M105.24,597.03c3.28,1.42,2.59,4.77-.5,5.94-2.7-1.77-1.6-4.14.5-5.94Z"/><path class="cls-1" d="M128.67,597.02c2.64,2.25,2.2,4.53-.5,6.46l-2.07-2.73,2.57-3.74Z"/><path class="cls-3" d="M492.02,459.94c-3.91-.2-7.81.3-11.57,1.4-13.27,3.86-20.91,16.04-30.97,24.53-12.1,10.21-25.1,15.88-41.15,16.62,6.56,2.15,14.17,2.14,20.94.93s12.66-4.25,19.32-4.79c18.01-1.45,35.52,9.09,42.06,25.92-7.28-1.34-14.45-1.34-21.66.4-11.86,2.87-18.03,6.46-31.2,4.48-34.14-5.12-45.51-39.17-85.96-25.24-6.75,2.33-13.71,6.13-19.44,10.34,15.42-6.74,34.16-12.2,50.6-5.8,10.08,3.92,17.51,12.45,26.86,17.71,1.26.71,2.74,1.05,3.82,1.64.52.29.77-.02.58,1.01-12.16,6.32-26.27,7.48-39.46,3.77-9.29-2.62-17.56-9.33-27.18-10.12-16.46-1.35-30.18,7.35-44.79,13.19-.11-11.08,2.95-22.18,6.93-32.41,8.4-21.6,24.49-39.79,49.7-38.12,9.41.62,18.85,5.01,28.25,6.32,26.05,3.62,30.68-15.73,51.31-23.6,17.37-6.62,40.15-1.5,52.99,11.83ZM391.97,494.52h16.15c18.23,0,32.89-23.64,47.39-32.21l6.27-3.28c-22.98,2.86-33.58,26.68-55.25,32.53l-14.55,2.96ZM379.69,483.6c-7.33-1.1-14.64-1.88-22.05-.91-17.81,2.34-34.86,18.38-41.61,34.57,12.3-14.3,25.33-27.56,44.56-31.62,6.23-1.31,11.25-1.33,17.52-1.59.55-.02,1.69.34,1.58-.45ZM462,513.63c-12.07-4.39-24.61-5.09-37.29-3.19.27.63,2.32.75,3.01.85,10.74,1.47,21.91,1.71,32.75,2.73.51.05,1.64.42,1.53-.4ZM396.51,526.82c-8.96-2.95-16.22-10.02-25.46-12.28l16.66,9.94c2.43.93,4.84,2.1,7.42,2.59.47.09,1.49.6,1.38-.25Z"/><path class="cls-3" d="M470.19,408.07c-21.89.03-30.34,22.5-45.26,34.57-12.3,9.94-25.32,14.19-41.24,11.71-13.23-2.06-25.21-9.57-38.56-10.79,5-5.31,13.08-6.53,19.55-9.33,15.72-6.8,22.38-20.15,35.79-29.25,21.61-14.67,50.24-15.47,69.73,3.1ZM436.53,408.99c-5.74.87-11.95,2.76-17.14,5.37-12.13,6.11-20.22,18.19-33.18,23.22l-16.53,4.61c5.28.16,10.38,0,15.55-1.04,17.54-3.55,26.79-18.7,41.44-27.24l9.85-4.92Z"/><path class="cls-3" d="M274.63,233.84c-7.58,10.09-7.03,22.79-14.18,33.35-5.87,8.66-16.07,13.16-21.37,22.76-6.83,12.36-4.62,25.89,2.36,37.61.81-.31.51-2.7.47-3.43-.66-11.01-1.99-17.55,2.63-28.27,5.1-11.82,15.06-15.71,22.29-25.47,4.07-5.51,6.82-11.94,7.85-18.76,23.84-1.82,50.21,5.98,63.63,26.79-10.16-2.61-18.73-1.35-27.71,3.91-6.76,3.96-12.52,10.15-19.57,13.63-16.56,8.19-28.37,3-40.51,21.35-8.23,12.44-6.17,23.84-8.84,37.56-1.5,7.7-4.42,14.95-7.06,22.27,3.7-4.16,6.78-9.51,8.64-14.78,4.81-13.61,2.29-27.17,12.29-39.12,9.31-11.14,22.41-13.1,35.46-17.53.4,12.26,1.9,24.25-3.69,35.66-6.87,14-21.5,17.3-33.29,25.39-9.9,6.79-18.18,16.38-27.9,23.5l-8.34,5.53c14.37-2.42,24.21-13.73,35.6-21.48,8.75-5.96,18.93-9.8,27.58-15.63,24.81-16.73,8.17-44.41,24.16-63.64s44.73-9.04,61.34,4.13c.64.5,4.27,3.11,3.68,3.82-21.17-5.64-33.98,12.9-47.29,25.26-6.8,6.32-14.73,11.6-21.39,17.73-5.29,4.88-9.32,10.9-13.64,16.61.75.66,11.98-8.08,13.51-9,3.3-1.99,7.06-3.13,10.38-5.09.7-.22.72-.01.6.6-1.46,7.94-5.9,16.67-10.2,23.47-13.86,21.9-29.69,31.99-56.37,30.54-14.56-.79-28.66-6.35-43.41-5.03l11.32-8c18.08-15.34,28-39.88,18.32-62.81-12.84-30.4-46.57-42.56-71.62-60.28-7.21-5.1-12.78-12.28-20.92-15.92-.57-.25-5.3-1.54-4.86-2.19,19.92-11.77,47.89-12.45,65.73,3.62,16.49,14.86,13.3,39.12,27.95,55.06-1.47-4.85-2.88-9.8-3.58-14.84-.73-5.34-.45-10.82-1.65-16.09-1.72-7.58-7.26-13.68-8.75-21.73-2.98-16.06,11.13-27.75-.84-44.2-7.64-10.49-20.92-13.51-31.71-19.69-9.71-5.56-18.42-13.13-26.02-21.29-8.77-9.41-16.89-20.01-22.05-31.85,1.72-1.26,30.59,7.83,34.92,8.96,25.5,6.7,47.26,6.14,57.41,34.93,2.98,8.46,4.06,17,8.72,24.94,7.93,13.51,25.96,21.52,39.93,27.16ZM220.97,200.62c-9.84-20.51-28.77-34.5-50.48-40.48l17.04,11.84c7.72,6.19,14.69,13.18,21.61,20.24l11.83,8.41ZM229.6,287.06c1.98-5.06,5.62-9.24,7.82-14.25,7.73-17.65,2.29-33.27-6.67-48.99,1.01,6.65,3.06,13.12,3.81,19.85.88,7.88.84,16.1-.53,23.92-1.06,6.1-3.56,12.11-4.67,18.08-.09.47-.6,1.49.25,1.38ZM205.5,283.88c-2.5-4.03-4.2-8.49-6.91-12.42-7.63-11.1-20.98-19.72-34.48-21.23l7.69,4.35c12.45,7.3,21.28,19.33,32.1,28.4.51.43.74,1.1,1.59.9ZM314.65,268.87c-9.3-2.43-20.02-2.77-29.3.02-11.46,3.45-20.72,12.99-27.92,22.11l-5.53,8.79c12.25-14.2,28.23-26.29,47.2-29.44,4.74-.79,9.21-.85,13.97-1.04.55-.02,1.69.34,1.58-.45ZM337.84,293.44c-19.19,2.6-31.35,20.75-34.56,38.66l7.72-13.43c4.9-7.38,10.62-14.24,17.79-19.51l9.05-5.72ZM253.72,355.31c9.5-9.55,19.53-20.1,23.64-33.21-10.67,8.58-19.68,19.89-23.64,33.21ZM285.54,376.69c-15.01,1.1-30,5.92-41.38,15.91,12.72-3.55,25.07-8.27,37.15-13.56l4.24-2.35Z"/><path class="cls-3" d="M140.93,464.49l8.25-21.09c8.48-18.33,21.2-33.44,41.58-38.47,25.3-6.24,43.1,7.82,66.83,9.06,4.86.25,9.52-.81,14.32-1.14-17,22.55-36.46,41.13-65.39,46.05-16.67,2.83-33.4-.2-47.81,10.41-2.34,1.72-4.07,3.88-6.18,5.65-.51.43-.74,1.1-1.59.9,5.02-18.27,23.99-31.09,42.13-33.6,5.99-.83,12.12-.74,18.12-1.44,9.99-1.15,19.86-3.25,28.88-7.73.11-.85-.92-.34-1.39-.25-1.74.33-3.48.9-5.26,1.11-11.2,1.3-22.18-.45-33.39,1.63-29.11,5.4-54.22,20.13-60.34,51.1l-3.31,15.56c-4.58-16.73-4.33-34.97-.15-51.78s11.53-27.46,5.16-44.9c-4.74-12.99-11.39-19.77-12.31-35-.88-14.58,4.96-29.91-.44-43.92,16.08,6.81,33.41,16.41,39.46,34,3.6,10.45,2.7,21.39.11,31.96.69-.25,1.23-1.6,1.59-2.27,7.02-12.91,4.66-31.81-2.77-44.1-9.96-16.46-32.73-15.74-34.75-40.31-1.01-12.28,6.24-25.41-3.19-35.7,23.44-6.74,46.65,6.56,54.91,29,6.85,18.62,1.74,24.75-3.19,41.62s4.07,30.09-.67,46.19c-5.04,17.1-20.19,26.68-28.55,41.5-6.14,10.88-9.17,23.6-10.67,35.95ZM171.39,345.3c2.57-19.86-1.73-46.21-17.73-59.83-.53-.45-4.16-3.32-4.55-2.95,9.14,12.83,13.59,28.18,18.06,43.12l4.22,19.66ZM153.65,416.26c.69-2.51,2.36-4.48,3.4-6.84,9.04-20.51,3.58-42.3-12.49-57.31,10.1,20.86,16.52,39.75,8.85,62.77-.15.44-.62,1.47.23,1.37ZM240.97,419.91c-17.24-.83-32.97-5.79-50.22-1.33-13.82,3.58-25.24,10.44-33.46,22.25l13.79-9.63c20.12-12.56,42.69-5.92,64.52-9.61l5.36-1.68Z"/><path class="cls-3" d="M233.24,185.61l-4.2-12.86c-6.62-15.76-19.98-23.31-36.18-26.59-18.32-3.71-26.6-1.97-37.58-19.28-7.22-11.39-12.9-24.32-16.64-37.26,16.15,5.53,32.19,8.02,49.34,7.27,24.71-1.08,60.19-10.74,81.78,4.64,3.99,2.84,9.31,7.6,9.31,12.88,0,9.58-19.92,25.77-26.52,32.98-9.74,10.65-18.28,23.33-19.33,38.22ZM259.62,122.83c-9.86-9.13-24.16-10.57-37.01-9.04-5.78.69-11.58,2.44-17.4,3.07-10.91,1.19-22.46.73-32.92-2.67,6.5,4.71,15.43,7.32,23.43,8.18,15.2,1.64,30.17-4.07,45.49-3.2,6.28.36,12.35,2.14,18.4,3.65Z"/><path class="cls-3" d="M283.73,465.86c-6.12,5.55-10.05,11.27-13.07,18.99-7.37,18.8-10.22,32.05-29.37,42.95-23,13.1-41.19,7.19-65.55,6.27-16.76-.63-34.14,3.02-50.27-2.72l6.32-3.45c11.5-8.29,14.93-22.3,24.13-32.73,14.26-16.15,34.67-21.31,55.49-16.37-5.8,4.27-10.8,9.37-14.33,15.69-2.25,4.03-3.85,8.45-6.22,12.43-5.57,9.33-14.16,17.97-24.47,21.7-.07.85,1.47.44,1.98.39,32.13-2.86,39.13-33.49,60.56-50.88,15.79-12.81,34.89-16.98,54.79-12.29ZM256.44,480.42c-19.68,8.35-27.94,30.11-45.97,40.67l-10.42,5.72c9.74-2.11,19.05-6.68,26.59-13.2,8.34-7.21,13.9-17.01,21.38-25.02,2.68-2.87,5.72-5.35,8.42-8.18ZM184.13,491.79c-.4-.36-1.78.89-2.22,1.19-9.54,6.56-13.8,13.83-21.2,22.01-2.91,3.22-6.3,6-9.33,9.09,14.87-6.18,22.59-20.81,32.74-32.29Z"/><path class="cls-3" d="M284.64,113.28c.69-.19.76.18,1.14.45,7.26,4.98,14.16,19.38,16.36,27.76,1.19,4.52,1.14,9.07,2.17,13.29,1.38,5.64,13.18,18.24,17.07,24.32,1.03,1.6,4.3,6.09,3.51,7.86-1.51,3.41-12.03,2.99-13.54,6.5-1.57,3.62,2.11,6.09,1.45,9.64-.32,1.72-2.9,3.44-2.99,4.1s.71,2.22.75,3.22c.17,3.6-2.99,4.45-3.56,6.9-.86,3.73,2.04,8.77-.81,12.84-3.76,5.38-15.75,1.72-21.11.26-16.19-4.42-39.9-13.57-43.15-32.35-2.74-15.86,5.6-29.91,14.97-41.79,10.44-13.24,25.95-25.03,27.73-43ZM298.28,169.69c-.8-4.8-1.42-9.32-5.45-12.52-6.67-5.29-12.99-.56-20.02,1.15-.75.68.07.8.69.89,9.7,1.43,17.93,2.67,24.78,10.47ZM292.82,222.01c-2.24-10.73-2.99-21.67-9.18-31.08-4.65-7.07-12.77-14-20.38-17.6,4.31,4.64,8.39,9.7,11.16,15.44,3.44,7.14,4.97,15.57,8.94,22.45.58,1.01,8.58,11.89,9.46,10.78Z"/><path class="cls-3" d="M281,535.46l24.56-82.34c-3.43.58-7.63.71-11.13.45-7.86-.59-15.52-4.26-23.26-4.94-11.16-.98-20.62,2.37-31.09,5.18-.46.12-1.44.65-1.36-.23,5.24-2.84,10.56-7.09,15.01-11.15,12.66-11.54,19.67-27.17,31.37-37.77,9.98-9.04,25.37-13,37.75-6.59-3.34-12.13-3.19-25.62,2.19-37.16,5.04-10.82,12.56-15.33,17.04-.95,4.79,15.38-1.94,29.45-11.95,40.84,10.88-.14,25.31,8.58,9.1,15.93.46,1.97,1.95,3.1,2.23,5.26.7,5.45-3.8,8.2-8.14,10.2,6.18,7.99-.42,13.21-7.61,16.26-1.39.59-5.43,1.33-5.96,2.22l-25.54,84.78h-13.19ZM329.66,390.33c2.22-7.1,3.43-14.37,3.64-21.83-.73,0-.69,1.53-.83,2.12-1.27,5.46-2.71,12.65-3.2,18.18-.05.51-.42,1.63.39,1.53ZM318.74,408.54c-23.17-2.09-37.67,14.89-50.93,30.93l11.61-6.81c9.47-6.1,18.06-13.51,28.02-18.83l11.31-5.28ZM316.93,429.91l-.22-.89c-8.86,1.55-17.88,2.39-26.39,5.44l-8.4,3.64c8.83.02,18.09-.55,26.37-3.87,3-1.2,5.59-3.26,8.65-4.32Z"/><path class="cls-3" d="M179.58,403.53l4.91-7.6c4.01-6.85,5.47-14.69,4.59-22.61-.49-4.37-3.07-9.14-3.54-13.75-2-19.93,14-37.63,7.8-57.39-.5-1.6-1.8-3.03-1.72-4.64,18.18,3.62,36.05,26.37,37.52,44.36,2.62,31.97-22.58,51.47-49.56,61.64ZM202.61,382.44c4.47-4.8,8.87-15.21,10.49-21.58,3.43-13.51,1.1-27.26-5.79-39.22-.78-.12-.48,1.08-.44,1.58.43,5.38,2,10.88,2.29,16.37.9,17.32-3.68,33.45-13.21,47.79.48.77,1-.19,1.36-.46,1.51-1.16,4.07-3.15,5.3-4.48Z"/><path class="cls-3" d="M209.6,233.84c-.13-2.54-3.75-7.48-6.19-7.73s-7.81,3.11-10.65,3.86c-16.7,4.41-27.67-10.9-44.59-6.39l-9.99,3.66c5.22-26.49,27.94-38.59,52.92-27,8.25,3.83,19.57,12.34,20.71,22.05.41,3.45.33,9.01-2.22,11.55ZM206.41,220.64c.2-.85-.48-1.08-.9-1.59-10.14-12.08-28.93-12.24-42.75-7.04h6.61c5.81-.59,12.7-.07,18.5,1.03,6.52,1.23,13.15,3.8,18.54,7.61Z"/><path class="cls-3" d="M391.97,369.64c-.18-1.58-1.67-6.62-2.72-7.74-1.58-1.69-10.4-3.75-13.31-4.88-10.25-3.98-15.3-9.12-24.03-14.63-7.08-4.48-15.19-7.45-23.61-8-.19-.69.18-.76.45-1.14,4.04-5.82,13.67-15.82,19.71-19.41,9.95-5.9,21.58-5.37,31.37.62,17.89,10.96,21.84,34.84,17.6,54.05,9.76-10.57,7.58-23.75,2.48-35.92-5.83-13.91-9.9-19.33-8.87-35.75,1.16-18.62,15.82-43.92,9.46-60.83-3.05-8.12-10.46-11.63-15.27-18.39-15.06-21.16-1.64-43.38-7.4-66.3-.72-2.87-1.71-5.67-2.69-8.45,20.22,2.21,35.26,19.86,34.58,40.28-.27,8.06-3.51,15.73-4.11,23.64-.86,11.3,1.45,21.92,5,32.52l.4-1.53c-.45-7.8-2.3-16.41-1.76-24.16.48-6.87,2.95-13.56,4.32-20.25,2.48-12.09.97-23.49,3.1-35.12,1.46-8,4.68-15.86,7.14-23.57,13.44,12.22,21.26,31.45,16.83,49.59,4.53-4.7,10.97-8.44,17.74-7.5-3.28,7.13-6.25,14.5-8.42,22.06s-2.85,14.76-6.97,22.14c-9.15,16.37-28.4,21.49-34.77,40.29-4.14,12.22-4.07,28.09,4.21,38.57-5.72-21.24-1.93-45.99,20.47-55.05-4.25,11.39,2.66,20.51,6.58,30.49,10.51,26.71,5.78,55.65-16.37,74.58-2.48,2.12-6,4.07-8.19,6.36-2.48,2.6-4.56,6.66-6.84,9.53-4.23,5.32-9.46,10.3-16.11,12.32-.22-2.69.3-5.78,0-8.42ZM426.07,192.89c6.3-10.88,6.69-21.7,3.18-33.66-.79-.11-.43,1.03-.45,1.58-.36,9.21-.16,18.05-1.95,27.17-.25,1.25-.76,2.38-1.02,3.53-.11.46-.61,1.48.25,1.38ZM401.06,212.91c.21-11.56-1.19-23.39-5.7-34.1l-5.21-10.48c2.95,11.06,3.53,22.99,6.22,34.03.79,3.26,1.86,7.13,3.67,9.96.29.45-.05.81,1.02.58ZM439.72,196.54c-15.81,5.45-23.67,21.61-23.19,37.75l4.79-13.63c4.43-9.23,10.62-17.48,18.4-24.12ZM417.44,346.66c8.32-8.87,11.6-21.9,10.91-33.89-.34-5.84-1.95-11.98-2.66-17.81-1.03-8.52-1.75-17.03-1.43-25.64l-2.42,6.9c-5.2,17.16,3.37,33.41,1.96,50.64-.56,6.84-3.73,13.58-6.36,19.8ZM414.25,334.61c.3,2.95-.22,6.32,0,9.33l1.23-3.54c3.28-11.2-1.51-22.61-8.5-31.27l-5.02-4.53c4.91,8.35,11.3,20.3,12.28,30.02ZM392.87,351.21c-2.33-15.14-14.29-29.11-30.24-30.02-4.88-.28-9.58,1.05-14.32,1.82-.11.79,1.03.43,1.58.45,14.39.55,23.94,3.61,33.67,14.55,3.6,4.05,6.21,8.8,9.31,13.2Z"/><path class="cls-2" d="M397.42,85.53c-3.47,8.89-6.05,18.69-11.18,26.8-8.46,13.37-23.25,21.19-37.93,25.97,1.46-15.15,8.05-30.99,20.25-40.47,8.33-6.47,18.78-9.64,28.86-12.3ZM388.78,93.72c-.35-.31-2.81,1.54-3.33,1.9-4.07,2.84-7.82,6.1-11.24,9.69l-6.81,10.25c7.2-7.19,15.37-13.54,21.37-21.83Z"/><path class="cls-2" d="M453.36,138.3c-14.31-6.04-30.41-14.73-38.57-28.52-4.48-7.59-6.84-16.29-10.55-24.25.64-.48,13.44,3.83,15.25,4.53,20.84,8.13,32.06,26.24,33.87,48.23ZM433.8,114.64c-3.46-7.29-9.04-13.24-15.59-17.84-1.59-1.12-3.45-2.57-5.33-3.08l20.92,20.92Z"/><path class="cls-2" d="M396.51,74.15c-9.27-3.14-19.42-5.87-27.7-11.18-13.05-8.38-19.75-22.31-24.6-36.58,14.85,2.5,30.56,9.02,40.46,20.71,6.41,7.57,9.82,17.46,11.84,27.05ZM388.78,65.96c.31-.32-2.54-3.65-2.95-4.1-4.18-4.69-9.94-9.51-15.1-13.1-.52-.36-2.98-2.21-3.33-1.9,6.27,7.2,12.81,14.58,21.37,19.1Z"/><path class="cls-2" d="M405.16,74.61c3.19-27.22,27.03-44.42,52.75-48.22-5.06,15.55-14.23,31.45-29.25,39.21-7.43,3.84-15.86,5.68-23.5,9.02ZM434.26,47.32l-12.29,8.41c-2.42,2.76-5.6,5.2-7.96,7.96-.38.45-2.36,2.84-2.04,3.19,8.37-5.3,16.2-11.71,22.28-19.56Z"/><path class="cls-2" d="M393.79,80.97c-9.24,3.64-18.12,8.82-28.09,10.34-10.54,1.61-20.39-.75-30.11-4.66-3.69-1.48-7.12-3.72-10.92-4.78,13.36-10.88,32.47-16.45,49.35-11.38,6.95,2.09,14.06,6.04,19.77,10.47ZM383.32,79.62c-9.86-1.89-20.2-2.06-30.02.22,8.77,2.03,18.57,2.14,27.45.61.63-.11,2.47-.13,2.57-.83Z"/><path class="cls-2" d="M407.43,80.53c6.44-3.07,12.37-7.41,19.2-9.69,17.53-5.86,35.46.75,49.92,10.82-10.83,6.11-23.97,11.07-36.62,10.25-8.56-.55-23.07-6.15-30.85-10.08-.35-.18-1.91-.92-1.65-1.3ZM447.45,79.62c-9.26-1.74-19.01-2.21-28.2.22,7.64,1.93,15.57,1.89,23.37,1.08l4.83-1.31Z"/><path class="cls-2" d="M400.16,67.33c-7.08-14.45-13.32-24.58-9.79-41.4,1.87-8.9,6.11-18.46,11.14-25.93,6.73,14.14,13.91,29.02,9.88,45.13-1.92,7.7-6.84,15.67-11.23,22.19ZM400.61,56.41c.91-.17.74-.96.9-1.59,2.01-7.96,1.54-16.36,0-24.34-.87.16-.75.95-.93,1.57-2.01,7.34-.65,16.86.03,24.36Z"/><path class="cls-2" d="M401.06,88.71c2.45,7.26,5.67,14.94,6.77,22.58,1.52,10.5-1.29,23.31-7.22,32.02-4.27-7.89-7.85-17.02-7.76-26.17.05-5.89,4.33-22.68,7.2-27.84.29-.51-.03-.77,1.01-.58Z"/></svg>