<?xml version="1.0" encoding="UTF-8"?>
<svg id="Layer_1" data-name="Layer 1" xmlns="http://www.w3.org/2000/svg" viewBox="0 0 842.18 841.89">
  <defs>
    <style>
      .cls-1 {
        fill: none;
        stroke: #231f20;
        stroke-miterlimit: 10;
        stroke-width: .5px;
      }

      .cls-2 {
        fill: #1f1f1f;
      }
    </style>
  </defs>
  <path class="cls-2" d="M175.58,582.76c168.08,0,240.74-250.37,245.2-547.85,4.47,297.48,77.13,547.85,245.21,547.85,2.38,160.96-241.91,145.98-245.05,260.43h-.32c-3.13-114.45-247.43-99.47-245.04-260.43Z"/>
  <g>
    <path class="cls-1" d="M420.62,843.19c-3.13-114.45-247.43-99.47-245.04-260.43"/>
    <path class="cls-1" d="M421,5.35c0,9.9-.07,19.75-.22,29.56-4.46,297.48-77.12,547.85-245.2,547.85"/>
    <path class="cls-1" d="M420.94,843.19c3.14-114.45,247.43-99.47,245.05-260.43"/>
    <path class="cls-1" d="M420.56,5.35c0,9.9.07,19.75.22,29.56,4.47,297.48,77.13,547.85,245.21,547.85"/>
  </g>
</svg>