<svg xmlns="http://www.w3.org/2000/svg" viewBox="0 0 324.14 245.98" width="324.14" height="245.98" aria-hidden="true" focusable="false">
  <defs>
    <style>.st0 { fill: #fff; }</style>
  </defs>
  <g>
    <path class="st0" d="M28.2,224.5v-27.64h19.92v6.05h-12.41v4.75h11.39v6.04h-11.39v4.75h12.36v6.05h-19.87Z"/>
    <path class="st0" d="M70.42,224.5h-8.1l9.12-27.64h10.26l9.12,27.64h-8.1l-6.04-20.03h-.22l-6.05,20.03h0ZM68.91,213.6h15.22v5.61h-15.22v-5.61Z"/>
    <path class="st0" d="M104.87,224.5v-27.64h11.93c2.05,0,3.85.37,5.38,1.12,1.54.75,2.73,1.82,3.59,3.23s1.28,3.09,1.28,5.05-.44,3.65-1.32,5.01-2.11,2.38-3.68,3.08c-1.58.69-3.42,1.04-5.53,1.04h-7.12v-5.83h5.61c.88,0,1.63-.11,2.26-.33.62-.22,1.11-.57,1.44-1.06.34-.49.51-1.12.51-1.9s-.17-1.44-.51-1.94-.82-.87-1.44-1.11c-.63-.24-1.38-.36-2.26-.36h-2.64v21.64h-7.5ZM121.06,211.82l6.91,12.68h-8.15l-6.75-12.68h7.99Z"/>
    <path class="st0" d="M141.64,224.5v-27.64h19.92v6.05h-12.41v4.75h11.39v6.04h-11.39v4.75h12.36v6.05h-19.87Z"/>
    <path class="st0" d="M200.59,196.87v27.64h-6.26l-9.99-14.52h-.16v14.52h-7.5v-27.64h6.37l9.82,14.47h.22v-14.47h7.5Z"/>
    <path class="st0" d="M226.19,224.5h-10.63v-27.64h10.53c2.84,0,5.3.55,7.38,1.65,2.07,1.1,3.67,2.69,4.8,4.75s1.69,4.54,1.69,7.42-.56,5.35-1.69,7.42c-1.12,2.06-2.72,3.65-4.78,4.75-2.06,1.1-4.49,1.65-7.3,1.65ZM223.06,218.13h2.86c1.37,0,2.54-.22,3.5-.66.97-.44,1.71-1.2,2.21-2.28.51-1.08.76-2.58.76-4.51s-.26-3.43-.78-4.51-1.27-1.84-2.27-2.28c-.99-.44-2.21-.66-3.65-.66h-2.64v14.9h.01Z"/>
    <path class="st0" d="M262.31,196.87v27.64h-7.5v-27.64h7.5Z"/>
    <path class="st0" d="M277.27,224.5v-27.64h7.5v21.59h11.17v6.05h-18.68.01Z"/>
  </g>
  <path class="st0" d="M202.89,123.89c.4,29.74-40.27,26.97-40.8,48.11h-.05c-.52-21.14-41.19-18.38-40.8-48.11,27.99,0,40.09-46.29,40.82-101.27.74,54.98,12.83,101.27,40.82,101.27h0Z"/>
</svg>
